<?xml version="1.0" encoding="UTF-8" standalone="no"?>
<!-- Created with Inkscape (http://www.inkscape.org/) -->

<svg
   width="35.71875mm"
   height="46.831249mm"
   viewBox="0 0 35.71875 46.83125"
   version="1.1"
   id="svg1"
   xml:space="preserve"
   xmlns="http://www.w3.org/2000/svg"
   xmlns:svg="http://www.w3.org/2000/svg"><defs
     id="defs1" /><g
     id="g465"><path
       style="fill:#fcc7b5"
       d="m 16.536458,43.726147 c -0.291041,-0.07332 -1.039759,-0.499693 -1.663816,-0.947505 -1.08701,-0.78002 -1.18437,-0.800906 -2.318901,-0.497465 C 10.964883,42.706132 9.9858767,42.680372 8.1502052,42.165308 6.8452332,41.799152 6.3727056,41.480739 5.0739725,40.092389 3.1009222,37.983193 2.5119357,36.304504 2.7134431,33.364572 2.8704943,31.073243 3.6181927,29.055158 5.4068535,26.094891 7.6198601,22.432323 8.4973696,20.122693 9.5410598,15.213541 9.8631082,13.698739 10.451248,11.911413 10.916902,11.032429 11.978591,9.0283473 14.120715,7.0687134 15.747676,6.6131925 L 16.990269,6.2652879 16.824871,5.0184554 c -0.224636,-1.6933843 -0.02195,-2.1080388 1.030415,-2.1080388 1.02673,0 1.364631,0.3507477 1.80578,1.8744387 0.279274,0.9645858 0.466091,1.1737895 1.223428,1.3700352 1.2152,0.3148902 3.446595,1.7760858 4.347773,2.8470745 1.183931,1.407023 1.972427,3.318161 2.832749,6.865958 1.169721,4.823691 1.652342,6.093679 3.825447,10.066432 1.076165,1.967384 2.123001,4.050978 2.326302,4.630208 0.687071,1.957542 0.789805,3.9956 0.301791,5.986985 -0.375918,1.533966 -0.672387,2.082315 -1.782559,3.29702 -0.732406,0.801369 -1.810804,1.701481 -2.396439,2.00025 -1.435081,0.732124 -3.677965,0.892123 -5.328345,0.380106 -1.240897,-0.384978 -1.345037,-0.379558 -1.852083,0.09641 -1.381097,1.296441 -4.455522,1.946737 -6.622672,1.400815 z"
       id="path479" /><path
       style="fill:#efa396"
       d="m 17.012826,43.652153 c -0.465601,-0.103507 -1.432838,-0.564415 -2.149413,-1.02424 -1.028555,-0.660022 -1.435236,-0.787918 -1.931577,-0.607457 -0.987194,0.358929 -3.4480423,0.376743 -4.8060553,0.03479 C 7.1888313,41.81932 6.5499831,41.395783 5.4971273,40.312528 3.8700791,38.638502 3.3590112,37.723916 2.9033801,35.670865 2.3409122,33.136412 3.1489503,30.160092 5.4403964,26.326041 7.7229977,22.50679 8.5390567,20.349614 9.7825919,14.847852 10.091183,13.482556 10.589333,11.883948 10.889593,11.295391 11.756012,9.5970694 13.910922,7.4923035 15.30737,6.9804147 17.108396,6.3202212 17.318764,6.0626592 16.955637,4.9623735 16.602073,3.8910618 16.780089,3.2592972 17.499897,3.0308388 c 1.062689,-0.3372842 2.373386,1.3486604 2.117591,2.7238486 -0.03383,0.181901 0.033,0.3398388 0.148518,0.3509728 1.581104,0.1523894 3.875715,1.4318501 5.19047,2.8941747 1.38189,1.5369941 2.257085,3.7175781 3.368182,8.3919631 0.423134,1.780124 0.869654,3.446999 0.992267,3.704166 1.180595,2.476168 2.665129,5.35383 3.100709,6.010503 0.965324,1.455306 1.941819,3.951083 2.217523,5.667659 0.251083,1.563282 0.118392,2.900475 -0.449729,4.532123 -0.076,0.218282 -0.119286,0.486172 -0.09618,0.595313 0.0231,0.109141 -0.06261,0.198437 -0.190479,0.198437 -0.127866,0 -0.380663,0.357736 -0.56177,0.794968 -0.423061,1.021358 -1.899603,2.313993 -3.402699,2.978884 -0.960092,0.424694 -1.578996,0.499437 -3.307163,0.399395 -1.202062,-0.06959 -2.168109,-0.249295 -2.222845,-0.413505 -0.126102,-0.378306 -0.779081,-0.123726 -1.848532,0.720695 -0.472927,0.373416 -0.978943,0.693821 -1.124479,0.712011 -0.145536,0.01819 -0.294377,0.05707 -0.330757,0.08639 -0.402094,0.324106 -3.059856,0.501812 -4.087695,0.273316 z M 15.361261,32.874479 c 0.0085,-0.109141 0.163485,-1.524737 0.344445,-3.14577 0.356722,-3.195513 0.206115,-4.549706 -0.349079,-3.138752 -0.824399,2.095101 -1.355109,5.844199 -0.892738,6.30657 0.239524,0.239524 0.878256,0.22383 0.897372,-0.02205 z m -4.674267,-2.921196 c 0.210007,-0.40611 0.699985,-1.721188 1.088838,-2.922395 0.66331,-2.04903 0.71901,-2.953805 0.181844,-2.953805 -0.346708,0 -2.4437412,5.748719 -2.2659977,6.211911 0.2312931,0.60274 0.5689107,0.488865 0.9953157,-0.335711 z m 3.388742,-15.189631 c -0.459669,-0.459668 -0.846569,0.03522 -0.846569,1.082865 0,1.433586 0.327844,1.558491 0.751857,0.286451 0.250042,-0.750123 0.28005,-1.183977 0.09471,-1.369316 z m 3.118129,-1.600631 c -0.0033,-0.481393 -0.05313,-0.519367 -0.260532,-0.198438 -0.331502,0.512963 -0.331502,0.79375 0,0.79375 0.145521,0 0.26276,-0.267891 0.260532,-0.595312 z m -1.503749,-0.79375 c 0.854238,-1.155333 1.047839,-1.780623 0.686219,-2.216348 -0.800123,-0.9640886 -2.618002,0.341448 -2.618002,1.880156 0,0.463821 0.07937,0.922685 0.176389,1.019699 0.410932,0.410931 1.162579,0.118258 1.755394,-0.683507 z"
       id="path478" /><path
       style="fill:#e78b75"
       d="m 17.012826,43.652153 c -0.465601,-0.103507 -1.432838,-0.564415 -2.149413,-1.02424 -1.028555,-0.660022 -1.435236,-0.787918 -1.931577,-0.607457 -0.987194,0.358929 -3.4480423,0.376743 -4.8060553,0.03479 C 7.1888313,41.81932 6.5499831,41.395783 5.4971273,40.312528 3.8700791,38.638502 3.3590112,37.723916 2.9033801,35.670865 2.3409122,33.136412 3.1489503,30.160092 5.4403964,26.326041 7.7229977,22.50679 8.5390567,20.349614 9.7825919,14.847852 10.091183,13.482556 10.589333,11.883948 10.889593,11.295391 11.756012,9.5970694 13.910922,7.4923035 15.30737,6.9804147 17.108396,6.3202212 17.318764,6.0626592 16.955637,4.9623735 16.602073,3.8910618 16.780089,3.2592972 17.499897,3.0308388 c 1.062689,-0.3372842 2.373386,1.3486604 2.117591,2.7238486 -0.03383,0.181901 0.033,0.3398388 0.148518,0.3509728 1.581104,0.1523894 3.875715,1.4318501 5.19047,2.8941747 1.38189,1.5369941 2.257085,3.7175781 3.368182,8.3919631 0.423134,1.780124 0.869654,3.446999 0.992267,3.704166 1.180595,2.476168 2.665129,5.35383 3.100709,6.010503 0.965324,1.455306 1.941819,3.951083 2.217523,5.667659 0.251083,1.563282 0.118392,2.900475 -0.449729,4.532123 -0.076,0.218282 -0.119286,0.486172 -0.09618,0.595313 0.0231,0.109141 -0.06261,0.198437 -0.190479,0.198437 -0.127866,0 -0.380663,0.357736 -0.56177,0.794968 -0.423061,1.021358 -1.899603,2.313993 -3.402699,2.978884 -0.960092,0.424694 -1.578996,0.499437 -3.307163,0.399395 -1.202062,-0.06959 -2.168109,-0.249295 -2.222845,-0.413505 -0.126102,-0.378306 -0.779081,-0.123726 -1.848532,0.720695 -0.472927,0.373416 -0.978943,0.693821 -1.124479,0.712011 -0.145536,0.01819 -0.294377,0.05707 -0.330757,0.08639 -0.402094,0.324106 -3.059856,0.501812 -4.087695,0.273316 z M 15.449509,33.271354 c 0.756734,-3.960116 1.186969,-10.517188 0.690074,-10.517188 -0.14552,0 -0.264583,0.213738 -0.264583,0.474973 0,0.261235 -0.289755,1.600688 -0.6439,2.976563 -1.364036,5.299363 -1.489649,7.660964 -0.407485,7.660964 0.32101,0 0.55459,-0.222167 0.625894,-0.595312 z M 4.8823761,31.617708 c 0.2436749,-0.873125 1.3218852,-3.135313 2.3960231,-5.027083 2.3429485,-4.1264 2.2863681,-3.983163 3.6057188,-9.128125 1.186908,-4.628484 1.998689,-6.623557 3.201184,-7.8673907 1.050566,-1.0866812 0.789514,-1.419627 -0.331423,-0.4226957 -1.600036,1.4230304 -2.673926,3.8793384 -3.192371,7.3019124 -0.423708,2.797157 -1.4850421,5.582687 -4.0561023,10.645465 -1.2563118,2.473854 -2.3565114,4.974167 -2.444888,5.55625 -0.234009,1.541276 0.2816813,0.877205 0.8218584,-1.058333 z m 5.5421499,-0.859896 c 0.902154,-1.393269 2.224524,-5.743284 2.31629,-7.619576 0.04236,-0.866082 0.170548,-1.641859 0.284865,-1.72395 0.258747,-0.185804 1.461461,-6.395569 1.320566,-6.818252 -0.05656,-0.169694 -0.325652,-0.308534 -0.597973,-0.308534 -0.56702,0 -0.651498,0.354615 -1.039998,4.365625 -0.258993,2.673932 -1.07788,5.570312 -2.658783,9.404042 -0.7783632,1.88755 -1.0366026,3.692832 -0.528247,3.692832 0.1434561,0 0.549932,-0.446484 0.90328,-0.992187 z m 6.512859,-12.832291 c 0.0022,-0.327422 0.105696,-0.755701 0.229929,-0.951732 0.128087,-0.202111 0.106784,-0.825612 -0.0492,-1.440157 -0.203964,-0.803556 -0.195005,-1.110431 0.03465,-1.186984 0.36933,-0.12311 0.418969,-2.077075 0.05843,-2.299902 -0.431223,-0.26651 -0.872853,0.946521 -0.730634,2.006842 0.07471,0.556997 0.04599,1.411094 -0.06383,1.897992 -0.230923,1.023883 -0.06127,2.569253 0.282048,2.569253 0.129004,0 0.236377,-0.267891 0.238605,-0.595312 z m -1.171574,-5.364583 c 0.926427,-1.21461 1.043583,-2.8646878 0.211822,-2.9834129 -0.825902,-0.1178889 -2.170382,1.1374529 -2.372584,2.2152829 -0.339295,1.808597 1.003158,2.285826 2.160762,0.76813 z"
       id="path477" /><path
       style="fill:#b1989c"
       d="m 17.012826,43.652153 c -0.465601,-0.103507 -1.432838,-0.564415 -2.149413,-1.02424 -1.028555,-0.660022 -1.435236,-0.787918 -1.931577,-0.607457 -0.987194,0.358929 -3.4480423,0.376743 -4.8060553,0.03479 C 7.1888313,41.81932 6.5499831,41.395783 5.4971273,40.312528 3.8700791,38.638502 3.3590112,37.723916 2.9033801,35.670865 2.3409122,33.136412 3.1489503,30.160092 5.4403964,26.326041 7.7229977,22.50679 8.5390567,20.349614 9.7825919,14.847852 10.091183,13.482556 10.589333,11.883948 10.889593,11.295391 11.756012,9.5970694 13.910922,7.4923035 15.30737,6.9804147 17.108396,6.3202212 17.318764,6.0626592 16.955637,4.9623735 16.602073,3.8910618 16.780089,3.2592972 17.499897,3.0308388 c 1.062689,-0.3372842 2.373386,1.3486604 2.117591,2.7238486 -0.03383,0.181901 0.033,0.3398388 0.148518,0.3509728 1.581104,0.1523894 3.875715,1.4318501 5.19047,2.8941747 1.38189,1.5369941 2.257085,3.7175781 3.368182,8.3919631 0.423134,1.780124 0.869654,3.446999 0.992267,3.704166 1.180595,2.476168 2.665129,5.35383 3.100709,6.010503 0.965324,1.455306 1.941819,3.951083 2.217523,5.667659 0.251083,1.563282 0.118392,2.900475 -0.449729,4.532123 -0.076,0.218282 -0.119286,0.486172 -0.09618,0.595313 0.0231,0.109141 -0.06261,0.198437 -0.190479,0.198437 -0.127866,0 -0.380663,0.357736 -0.56177,0.794968 -0.423061,1.021358 -1.899603,2.313993 -3.402699,2.978884 -0.960092,0.424694 -1.578996,0.499437 -3.307163,0.399395 -1.202062,-0.06959 -2.168109,-0.249295 -2.222845,-0.413505 -0.126102,-0.378306 -0.779081,-0.123726 -1.848532,0.720695 -0.472927,0.373416 -0.978943,0.693821 -1.124479,0.712011 -0.145536,0.01819 -0.294377,0.05707 -0.330757,0.08639 -0.402094,0.324106 -3.059856,0.501812 -4.087695,0.273316 z M 5.8102633,29.389469 c 0.2942863,-0.576849 1.18867,-2.149664 1.9875193,-3.495143 1.575413,-2.653425 2.3835384,-4.845921 3.4491854,-9.357868 1.155749,-4.893439 2.429143,-7.0138442 4.892615,-8.1469931 0.976367,-0.4491096 1.087152,-0.5656923 0.615626,-0.6478464 -0.819562,-0.1427923 -2.502515,0.7903629 -3.52434,1.954158 -1.19382,1.3596855 -2.07337,3.3822115 -2.539372,5.8392865 -0.7515134,3.962491 -1.9001257,7.35446 -3.1734613,9.371554 -0.3630359,0.575086 -1.2675713,2.245938 -2.0100786,3.713004 -1.1760066,2.323586 -1.3623787,2.910374 -1.4459486,4.552532 l -0.095935,1.885138 0.654562,-2.309503 c 0.3600091,-1.270227 0.8953417,-2.781471 1.189628,-3.358319 z m 9.6566647,4.411051 c 0.265192,-1.203505 1.168607,-8.069976 1.346624,-10.235107 0.114889,-1.397337 0.36937,-2.56244 0.680792,-3.116901 0.273528,-0.486993 0.497323,-1.119945 0.497323,-1.40656 0,-0.286615 0.176325,-0.521119 0.391834,-0.521119 0.215509,0 0.470051,-0.327422 0.565649,-0.727604 0.0956,-0.400182 0.278794,-0.861678 0.407101,-1.025546 0.372901,-0.47625 0.107413,-3.23717 -0.364255,-3.788037 -0.232433,-0.271462 -0.467613,-0.713326 -0.522621,-0.981919 -0.06182,-0.301834 -0.283337,-0.45633 -0.579997,-0.404511 -0.286952,0.05012 -0.409821,-0.02968 -0.305523,-0.198437 0.102622,-0.166046 -0.05629,-0.282279 -0.385938,-0.282279 -0.309537,0 -0.486542,-0.1195 -0.395412,-0.266951 0.333673,-0.539895 -0.157247,-1.3205492 -0.830437,-1.3205492 -1.014645,0 -1.6316,0.446422 -2.225327,1.6102222 -0.501485,0.982993 -0.512003,1.124469 -0.139166,1.871839 0.37351,0.748719 0.366215,0.840586 -0.09869,1.242895 -0.391568,0.338846 -0.592794,1.165988 -0.914662,3.759729 -0.456396,3.677832 -1.346465,7.062029 -2.6022209,9.894101 -0.5512167,1.243144 -0.8533201,2.389369 -0.909121,3.449338 -0.045965,0.873125 -0.014654,1.437931 0.06958,1.255123 0.084233,-0.182808 0.2517671,-0.27143 0.3722969,-0.196939 0.1205297,0.07449 0.3719162,-0.209695 0.5586361,-0.631525 0.19736,-0.445867 0.483849,-0.71157 0.684299,-0.63465 0.306649,0.117672 0.466063,-0.214682 0.376139,-0.784196 -0.01723,-0.109141 0.08773,-0.198437 0.233251,-0.198437 0.145521,0 0.264584,-0.40175 0.264584,-0.892777 0,-0.491027 0.187995,-1.413761 0.417768,-2.050521 0.229772,-0.636759 0.529367,-1.918996 0.665767,-2.849415 0.327122,-2.231394 1.226827,-4.186214 1.994218,-4.33291 0.425065,-0.08126 0.626795,0.04029 0.734841,0.442747 0.331397,1.234422 0.119914,3.893094 -0.499134,6.274896 -0.725463,2.791234 -1.096043,5.894198 -0.830356,6.952781 0.221226,0.881435 1.154196,0.946234 1.342157,0.09322 z M 8.3186076,28.661705 C 8.6986202,27.981788 8.966117,27.297179 8.9130451,27.14035 8.8166295,26.855441 8.149764,27.982254 7.6735994,29.234662 7.2812288,30.266675 7.5599526,30.019086 8.3186076,28.661705 Z"
       id="path476" /><path
       style="fill:#e77468"
       d="m 16.66875,43.349326 c -0.509323,-0.14256 -1.364908,-0.60756 -1.901299,-1.033334 l -0.975258,-0.774135 -1.554754,0.39831 C 9.4073426,42.665204 6.6974228,41.78198 4.8893767,39.545268 2.0032301,35.974852 2.305101,31.8412 5.8849157,25.912912 8.0285731,22.362946 8.7814731,20.349001 9.8010562,15.43756 10.7632,10.80281 12.726386,7.9693794 15.647817,6.9990359 c 1.665204,-0.5530919 1.942204,-0.9161576 1.566806,-2.053623 -0.38583,-1.1690758 -0.141665,-1.7748274 0.687725,-1.706185 0.820546,0.06791 1.081529,0.3851055 1.4967,1.8190713 0.301042,1.0397708 0.442817,1.1794573 1.512915,1.4906236 0.64941,0.1888374 1.829276,0.7868783 2.621924,1.3289798 1.90405,1.3022024 3.094139,3.4914174 4.090357,7.5243754 1.24806,5.052479 1.979794,7.13036 3.334388,9.468555 3.31004,5.713533 4.079365,8.37317 3.300889,11.411526 -0.662137,2.584291 -1.776427,4.071124 -3.840652,5.124704 -1.768666,0.902728 -3.321636,1.058676 -5.224813,0.524672 l -1.604823,-0.450291 -1.012846,0.790116 c -1.712824,1.336166 -3.693479,1.697508 -5.907637,1.077766 z M 5.8102633,29.389469 c 0.2942863,-0.576849 1.18867,-2.149664 1.9875193,-3.495143 1.575413,-2.653425 2.3835384,-4.845921 3.4491854,-9.357868 1.155749,-4.893439 2.429143,-7.0138442 4.892615,-8.1469931 0.976367,-0.4491096 1.087152,-0.5656923 0.615626,-0.6478464 -0.819562,-0.1427923 -2.502515,0.7903629 -3.52434,1.954158 -1.19382,1.3596855 -2.07337,3.3822115 -2.539372,5.8392865 -0.7515134,3.962491 -1.9001257,7.35446 -3.1734613,9.371554 -0.3630359,0.575086 -1.2675713,2.245938 -2.0100786,3.713004 -1.1760066,2.323586 -1.3623787,2.910374 -1.4459486,4.552532 l -0.095935,1.885138 0.654562,-2.309503 c 0.3600091,-1.270227 0.8953417,-2.781471 1.189628,-3.358319 z m 9.6566647,4.411051 c 0.265192,-1.203505 1.168607,-8.069976 1.346624,-10.235107 0.114889,-1.397337 0.36937,-2.56244 0.680792,-3.116901 0.273528,-0.486993 0.497323,-1.119945 0.497323,-1.40656 0,-0.286615 0.176325,-0.521119 0.391834,-0.521119 0.215509,0 0.470051,-0.327422 0.565649,-0.727604 0.0956,-0.400182 0.278794,-0.861678 0.407101,-1.025546 0.372901,-0.47625 0.107413,-3.23717 -0.364255,-3.788037 -0.232433,-0.271462 -0.467613,-0.713326 -0.522621,-0.981919 -0.06182,-0.301834 -0.283337,-0.45633 -0.579997,-0.404511 -0.286952,0.05012 -0.409821,-0.02968 -0.305523,-0.198437 0.102622,-0.166046 -0.05629,-0.282279 -0.385938,-0.282279 -0.309537,0 -0.486542,-0.1195 -0.395412,-0.266951 0.333673,-0.539895 -0.157247,-1.3205492 -0.830437,-1.3205492 -1.014645,0 -1.6316,0.446422 -2.225327,1.6102222 -0.501485,0.982993 -0.512003,1.124469 -0.139166,1.871839 0.37351,0.748719 0.366215,0.840586 -0.09869,1.242895 -0.391568,0.338846 -0.592794,1.165988 -0.914662,3.759729 -0.456396,3.677832 -1.346465,7.062029 -2.6022209,9.894101 -0.5512167,1.243144 -0.8533201,2.389369 -0.909121,3.449338 -0.045965,0.873125 -0.014654,1.437931 0.06958,1.255123 0.084233,-0.182808 0.2517671,-0.27143 0.3722969,-0.196939 0.1205297,0.07449 0.3719162,-0.209695 0.5586361,-0.631525 0.19736,-0.445867 0.483849,-0.71157 0.684299,-0.63465 0.306649,0.117672 0.466063,-0.214682 0.376139,-0.784196 -0.01723,-0.109141 0.08773,-0.198437 0.233251,-0.198437 0.145521,0 0.264584,-0.40175 0.264584,-0.892777 0,-0.491027 0.187995,-1.413761 0.417768,-2.050521 0.229772,-0.636759 0.529367,-1.918996 0.665767,-2.849415 0.327122,-2.231394 1.226827,-4.186214 1.994218,-4.33291 0.425065,-0.08126 0.626795,0.04029 0.734841,0.442747 0.331397,1.234422 0.119914,3.893094 -0.499134,6.274896 -0.725463,2.791234 -1.096043,5.894198 -0.830356,6.952781 0.221226,0.881435 1.154196,0.946234 1.342157,0.09322 z m 16.812239,-4.198417 c 0,-0.145521 -0.119063,-0.190999 -0.264584,-0.101062 -0.14552,0.08994 -0.264583,0.282584 -0.264583,0.428105 0,0.145521 0.119063,0.190999 0.264583,0.101062 0.145521,-0.08994 0.264584,-0.282584 0.264584,-0.428105 z M 8.3186076,28.661705 C 8.6986202,27.981788 8.966117,27.297179 8.9130451,27.14035 8.8166295,26.855441 8.149764,27.982254 7.6735994,29.234662 7.2812288,30.266675 7.5599526,30.019086 8.3186076,28.661705 Z M 18.414342,5.3733989 C 18.258669,3.8450987 17.933511,3.1561076 17.612813,3.6750081 c -0.147184,0.2381484 0.107147,1.6546918 0.515904,2.8734293 0.274593,0.818715 0.42548,0.1979768 0.285625,-1.1750385 z"
       id="path475" /><path
       style="fill:#b06c90"
       d="m 16.66875,43.349326 c -0.509323,-0.14256 -1.364908,-0.60756 -1.901299,-1.033334 l -0.975258,-0.774135 -1.554754,0.39831 C 9.4073426,42.665204 6.6974228,41.78198 4.8893767,39.545268 2.0032301,35.974852 2.305101,31.8412 5.8849157,25.912912 8.0285731,22.362946 8.7814731,20.349001 9.8010562,15.43756 10.7632,10.80281 12.726386,7.9693794 15.647817,6.9990359 c 1.665204,-0.5530919 1.942204,-0.9161576 1.566806,-2.053623 -0.38583,-1.1690758 -0.141665,-1.7748274 0.687725,-1.706185 0.820546,0.06791 1.081529,0.3851055 1.4967,1.8190713 0.301042,1.0397708 0.442817,1.1794573 1.512915,1.4906236 0.64941,0.1888374 1.829276,0.7868783 2.621924,1.3289798 1.90405,1.3022024 3.094139,3.4914174 4.090357,7.5243754 1.24806,5.052479 1.979794,7.13036 3.334388,9.468555 3.31004,5.713533 4.079365,8.37317 3.300889,11.411526 -0.662137,2.584291 -1.776427,4.071124 -3.840652,5.124704 -1.768666,0.902728 -3.321636,1.058676 -5.224813,0.524672 l -1.604823,-0.450291 -1.012846,0.790116 c -1.712824,1.336166 -3.693479,1.697508 -5.907637,1.077766 z M 15.680911,36.35381 c 0.253141,-0.25314 -0.384078,-1.428811 -0.774422,-1.428811 -0.194923,0 -0.354406,-0.124281 -0.354406,-0.276181 0,-0.1519 0.204043,-0.241197 0.45343,-0.198438 0.249386,0.04276 0.47829,-0.100849 0.508676,-0.319131 0.03039,-0.218281 0.323619,-2.334412 0.651628,-4.702513 0.32801,-2.368102 0.672897,-4.181834 0.766416,-4.030517 0.09352,0.151317 0.06365,1.076823 -0.06637,2.056681 -0.309075,2.329175 -0.307317,2.918154 0.01203,4.030516 0.216001,0.752376 0.472959,0.704002 0.351357,-0.06615 -0.01723,-0.10914 0.147261,-0.198437 0.365543,-0.198437 0.218281,0 0.396875,0.178594 0.396875,0.396875 0,0.433418 0.411209,0.537204 0.64293,0.162271 0.07975,-0.129033 -0.03529,-0.384229 -0.255644,-0.567104 -0.35642,-0.295802 -0.352124,-0.386105 0.03893,-0.818212 0.405852,-0.448462 0.406363,-0.498455 0.0067,-0.65183 -0.367087,-0.140864 -0.43289,-0.642547 -0.43289,-3.300358 0,-1.831772 0.1288,-3.41693 0.309943,-3.814495 0.308829,-0.677804 1.277751,-1.126778 1.772201,-0.821191 0.406842,0.251442 0.638431,-2.435819 0.517695,-6.007126 C 20.502472,13.166082 20.366015,12.288159 19.85447,11.057799 19.196401,9.4750239 19.006855,9.3162085 17.396354,8.9982123 16.647665,8.8503824 16.404167,8.8889459 16.404167,9.1553477 c 0,0.1961831 -0.166839,0.2890225 -0.3755,0.2089516 -0.573123,-0.219928 -1.713859,0.6574207 -2.268596,1.7447937 -0.530162,1.039204 -0.550286,1.677358 -0.0681,2.159544 0.221874,0.221874 0.175602,0.408321 -0.17991,0.724926 -0.356723,0.317683 -0.591131,1.270684 -0.920459,3.74218 -0.523482,3.928554 -1.212121,6.817879 -2.161078,9.067242 C 9.2690732,29.55603 9.0256783,30.313517 8.747502,32.040834 8.4560632,33.850503 8.5154285,34.110576 9.1077413,33.619 9.3730338,33.398827 9.9520869,33.352784 10.925786,33.474439 l 1.428765,0.178513 0.506946,-3.266581 c 0.27882,-1.796619 0.412074,-3.307602 0.29612,-3.35774 -0.352854,-0.152571 -0.986784,0.521711 -0.986784,1.049599 0,0.273223 -0.110751,0.49677 -0.246114,0.49677 -0.149585,0 -0.145423,-0.337259 0.01061,-0.859896 0.636419,-2.131657 1.098533,-3.823358 1.212734,-4.439568 0.09824,-0.530067 0.270892,-0.661855 0.83017,-0.633668 0.464852,0.02343 0.815944,-0.154724 1.027492,-0.52137 0.555714,-0.963142 0.406412,2.8656 -0.200107,5.131585 -0.710335,2.653847 -0.954849,6.210222 -0.519745,7.559546 0.473527,1.468484 0.946201,1.991014 1.395034,1.542181 z m 1.558782,-9.630894 c 0,-0.363802 0.06005,-0.51263 0.133452,-0.330729 0.0734,0.181901 0.0734,0.479557 0,0.661458 -0.0734,0.181901 -0.133452,0.03307 -0.133452,-0.330729 z M 4.4979167,34.780938 c 0,-2.072158 0.7875167,-4.498171 2.2936751,-7.065863 2.4604509,-4.194565 3.2118002,-5.992384 4.2847852,-10.252575 1.156019,-4.589869 1.853269,-6.394258 2.897406,-7.4981004 1.069628,-1.1307917 1.948773,-1.4909504 3.392266,-1.3897084 0.707892,0.049649 0.959654,0.038111 0.559472,-0.02564 -0.402321,-0.064092 -0.727604,-0.2858447 -0.727604,-0.496023 0,-0.9172745 -2.351751,-0.093377 -3.716405,1.3019814 -1.2764,1.3051187 -2.316133,3.7430767 -3.006304,7.0491567 -0.8058849,3.860378 -1.7276457,6.385681 -3.3740001,9.243584 -2.5593033,4.44269 -2.9564678,5.476086 -3.0825054,8.020479 -0.079423,1.603346 -0.023386,2.315104 0.1822672,2.315104 0.1759789,0 0.296947,-0.489823 0.296947,-1.202395 z m 3.4723667,-5.081459 c 0.5920138,-1.273308 1.3698687,-2.948161 1.7285663,-3.721897 0.3586973,-0.773736 0.6082403,-1.538605 0.5545383,-1.699711 -0.0537,-0.161105 -0.3653637,0.27664 -0.6925819,0.972767 -0.3272183,0.696127 -0.8672395,1.699122 -1.2000472,2.228878 -0.5906089,0.940117 -1.7461756,3.772764 -1.7461756,4.280409 0,0.631058 0.3555558,0.09067 1.3557001,-2.060446 z M 20.6375,29.897916 c 0,-0.145521 -0.05251,-0.264583 -0.116677,-0.264583 -0.06417,0 -0.190261,0.119062 -0.280198,0.264583 -0.08994,0.145521 -0.03743,0.264584 0.116677,0.264584 0.154109,0 0.280198,-0.119063 0.280198,-0.264584 z m 0.446967,-0.992187 c -0.06655,-0.254662 -0.121,-0.0463 -0.121,0.463021 0,0.509322 0.05445,0.717682 0.121,0.46302 0.06655,-0.254661 0.06655,-0.67138 0,-0.926041 z m 11.1947,0.696374 c 0,-0.145521 -0.119063,-0.190999 -0.264584,-0.101062 -0.14552,0.08994 -0.264583,0.282584 -0.264583,0.428105 0,0.145521 0.119063,0.190999 0.264583,0.101062 0.145521,-0.08994 0.264584,-0.282584 0.264584,-0.428105 z M 20.641113,29.03802 c 0.002,-0.181901 0.08027,-0.617237 0.17397,-0.967415 0.124122,-0.463889 0.08246,-0.582362 -0.153508,-0.436526 -0.178125,0.110087 -0.264013,0.26001 -0.190862,0.333162 0.07315,0.07315 0.02449,0.418416 -0.10814,0.767255 -0.152291,0.400557 -0.146067,0.634254 0.01689,0.634254 0.141919,0 0.259661,-0.148829 0.261648,-0.33073 z M 24.447352,9.9479473 C 24.369092,9.744006 24.062626,9.5137464 23.766315,9.4362594 23.241329,9.2989725 23.240107,9.3080419 23.718471,9.7913368 c 0.58881,0.5948782 0.924759,0.6670612 0.728881,0.1566105 z M 18.414342,5.3733989 C 18.258669,3.8450987 17.933511,3.1561076 17.612813,3.6750081 c -0.147184,0.2381484 0.107147,1.6546918 0.515904,2.8734293 0.274593,0.818715 0.42548,0.1979768 0.285625,-1.1750385 z"
       id="path474" /><path
       style="fill:#d56d66"
       d="M 17.126008,43.401854 C 16.577135,43.295515 15.590886,42.822742 14.934343,42.351249 13.861814,41.581017 13.656939,41.523163 12.916249,41.781369 11.860728,42.149326 9.4245588,42.148103 8.0949972,41.77895 6.6638764,41.381598 4.4358441,39.211687 3.6931522,37.491933 3.366248,36.734963 3.0445312,35.341718 2.9782261,34.395833 2.8774827,32.958662 2.985507,32.32802 3.6355707,30.558281 4.0634154,29.393513 4.9828323,27.50259 5.6787195,26.356231 7.9118437,22.677525 8.6135924,20.809565 10.049979,14.720528 10.725853,11.855409 11.331426,10.627752 12.891611,8.9597883 13.756856,8.0347717 14.533517,7.5151685 15.670659,7.1005461 16.53867,6.7840534 17.305514,6.3774673 17.374758,6.1970215 17.444002,6.0165756 17.375008,5.413882 17.22144,4.8577023 16.874241,3.600253 17.28003,3.0266762 18.260293,3.3892989 c 0.435515,0.1611077 0.761487,0.6302186 1.061872,1.5281568 0.369262,1.1038316 0.568406,1.3352009 1.344914,1.5625524 1.378278,0.4035415 3.237182,1.587675 4.182392,2.6642101 1.195344,1.3614208 1.997844,3.3355228 3.043761,7.4874688 1.152602,4.575444 1.473414,5.437555 3.148896,8.46195 3.443236,6.215348 3.841093,7.681955 3.087347,11.380781 -0.295723,1.451189 -0.538443,1.893137 -1.770708,3.22413 -1.847311,1.995317 -3.067648,2.485748 -5.755976,2.313222 -1.087554,-0.06979 -2.164582,-0.282272 -2.393397,-0.472171 -0.351472,-0.291697 -0.527443,-0.241063 -1.134064,0.326317 -1.450743,1.356897 -3.775537,1.957089 -5.949322,1.535938 z m 6.548002,-3.563383 c 0.578674,-0.502162 0.987002,-0.978154 0.907394,-1.057762 -0.226113,-0.226113 -2.153835,1.291667 -2.86428,2.255173 l -0.640168,0.868197 0.77246,-0.576294 c 0.424852,-0.316961 1.24592,-0.987153 1.824594,-1.489314 z m 6.910269,0.211921 c 1.268318,-0.860704 1.557405,-1.211825 2.368239,-2.876434 0.481719,-0.988949 0.645048,-1.761651 0.646981,-3.060832 0.0035,-2.346695 -0.498253,-3.861864 -2.315818,-6.993335 -0.84463,-1.455208 -1.867131,-3.328866 -2.272223,-4.163683 -0.760299,-1.566829 -2.285432,-6.541139 -2.292593,-7.477426 -0.005,-0.654913 -0.433296,-1.371196 -0.675224,-1.129268 -0.321576,0.321577 0.872526,6.288086 1.258462,6.288086 0.11801,0 0.214564,0.277812 0.214564,0.617361 0,0.339548 0.07279,0.690151 0.161756,0.779118 0.08897,0.08897 0.546068,1.045803 1.01578,2.126304 0.469712,1.080501 1.089271,2.307476 1.376797,2.726611 0.287525,0.419135 0.923493,1.714564 1.413262,2.878731 0.74032,1.759719 0.891383,2.451304 0.895786,4.101041 0.0065,2.430005 -0.573922,3.819187 -2.349073,5.622396 -1.355452,1.376876 -1.072088,1.66435 0.553304,0.56133 z m -0.05855,-1.751955 c 0.206483,-0.327422 0.454476,-0.892969 0.551095,-1.256771 0.159196,-0.599425 0.100414,-0.574612 -0.626791,0.264583 -0.80714,0.931441 -1.03783,1.5875 -0.558213,1.5875 0.142166,0 0.427425,-0.26789 0.633909,-0.595312 z M 15.680911,36.35381 c 0.253141,-0.25314 -0.384078,-1.428811 -0.774422,-1.428811 -0.194923,0 -0.354406,-0.124281 -0.354406,-0.276181 0,-0.1519 0.204043,-0.241197 0.45343,-0.198438 0.249386,0.04276 0.47829,-0.100849 0.508676,-0.319131 0.03039,-0.218281 0.323619,-2.334412 0.651628,-4.702513 0.32801,-2.368102 0.672897,-4.181834 0.766416,-4.030517 0.09352,0.151317 0.06365,1.076823 -0.06637,2.056681 -0.309075,2.329175 -0.307317,2.918154 0.01203,4.030516 0.216001,0.752376 0.472959,0.704002 0.351357,-0.06615 -0.01723,-0.10914 0.147261,-0.198437 0.365543,-0.198437 0.218281,0 0.396875,0.178594 0.396875,0.396875 0,0.433418 0.411209,0.537204 0.64293,0.162271 0.07975,-0.129033 -0.03529,-0.384229 -0.255644,-0.567104 -0.35642,-0.295802 -0.352124,-0.386105 0.03893,-0.818212 0.405852,-0.448462 0.406363,-0.498455 0.0067,-0.65183 -0.367087,-0.140864 -0.43289,-0.642547 -0.43289,-3.300358 0,-1.831772 0.1288,-3.41693 0.309943,-3.814495 0.308829,-0.677804 1.277751,-1.126778 1.772201,-0.821191 0.406842,0.251442 0.638431,-2.435819 0.517695,-6.007126 C 20.502472,13.166082 20.366015,12.288159 19.85447,11.057799 19.196401,9.4750239 19.006855,9.3162085 17.396354,8.9982123 16.647665,8.8503824 16.404167,8.8889459 16.404167,9.1553477 c 0,0.1961831 -0.166839,0.2890225 -0.3755,0.2089516 -0.573123,-0.219928 -1.713859,0.6574207 -2.268596,1.7447937 -0.530162,1.039204 -0.550286,1.677358 -0.0681,2.159544 0.221874,0.221874 0.175602,0.408321 -0.17991,0.724926 -0.356723,0.317683 -0.591131,1.270684 -0.920459,3.74218 -0.523482,3.928554 -1.212121,6.817879 -2.161078,9.067242 C 9.2690732,29.55603 9.0256783,30.313517 8.747502,32.040834 8.4560632,33.850503 8.5154285,34.110576 9.1077413,33.619 9.3730338,33.398827 9.9520869,33.352784 10.925786,33.474439 l 1.428765,0.178513 0.506946,-3.266581 c 0.27882,-1.796619 0.412074,-3.307602 0.29612,-3.35774 -0.352854,-0.152571 -0.986784,0.521711 -0.986784,1.049599 0,0.273223 -0.110751,0.49677 -0.246114,0.49677 -0.149585,0 -0.145423,-0.337259 0.01061,-0.859896 0.636419,-2.131657 1.098533,-3.823358 1.212734,-4.439568 0.09824,-0.530067 0.270892,-0.661855 0.83017,-0.633668 0.464852,0.02343 0.815944,-0.154724 1.027492,-0.52137 0.555714,-0.963142 0.406412,2.8656 -0.200107,5.131585 -0.710335,2.653847 -0.954849,6.210222 -0.519745,7.559546 0.473527,1.468484 0.946201,1.991014 1.395034,1.542181 z m 1.558782,-9.630894 c 0,-0.363802 0.06005,-0.51263 0.133452,-0.330729 0.0734,0.181901 0.0734,0.479557 0,0.661458 -0.0734,0.181901 -0.133452,0.03307 -0.133452,-0.330729 z M 4.4979167,34.780938 c 0,-2.072158 0.7875167,-4.498171 2.2936751,-7.065863 2.4604509,-4.194565 3.2118002,-5.992384 4.2847852,-10.252575 1.156019,-4.589869 1.853269,-6.394258 2.897406,-7.4981004 1.069628,-1.1307917 1.948773,-1.4909504 3.392266,-1.3897084 0.707892,0.049649 0.959654,0.038111 0.559472,-0.02564 -0.402321,-0.064092 -0.727604,-0.2858447 -0.727604,-0.496023 0,-0.9172745 -2.351751,-0.093377 -3.716405,1.3019814 -1.2764,1.3051187 -2.316133,3.7430767 -3.006304,7.0491567 -0.8058849,3.860378 -1.7276457,6.385681 -3.3740001,9.243584 -2.5593033,4.44269 -2.9564678,5.476086 -3.0825054,8.020479 -0.079423,1.603346 -0.023386,2.315104 0.1822672,2.315104 0.1759789,0 0.296947,-0.489823 0.296947,-1.202395 z m 3.4723667,-5.081459 c 0.5920138,-1.273308 1.3698687,-2.948161 1.7285663,-3.721897 0.3586973,-0.773736 0.6082403,-1.538605 0.5545383,-1.699711 -0.0537,-0.161105 -0.3653637,0.27664 -0.6925819,0.972767 -0.3272183,0.696127 -0.8672395,1.699122 -1.2000472,2.228878 -0.5906089,0.940117 -1.7461756,3.772764 -1.7461756,4.280409 0,0.631058 0.3555558,0.09067 1.3557001,-2.060446 z M 20.6375,29.897916 c 0,-0.145521 -0.05251,-0.264583 -0.116677,-0.264583 -0.06417,0 -0.190261,0.119062 -0.280198,0.264583 -0.08994,0.145521 -0.03743,0.264584 0.116677,0.264584 0.154109,0 0.280198,-0.119063 0.280198,-0.264584 z m 0.446967,-0.992187 c -0.06655,-0.254662 -0.121,-0.0463 -0.121,0.463021 0,0.509322 0.05445,0.717682 0.121,0.46302 0.06655,-0.254661 0.06655,-0.67138 0,-0.926041 z m -0.443354,0.132291 c 0.002,-0.181901 0.08027,-0.617237 0.17397,-0.967415 0.124122,-0.463889 0.08246,-0.582362 -0.153508,-0.436526 -0.178125,0.110087 -0.264013,0.26001 -0.190862,0.333162 0.07315,0.07315 0.02449,0.418416 -0.10814,0.767255 -0.152291,0.400557 -0.146067,0.634254 0.01689,0.634254 0.141919,0 0.259661,-0.148829 0.261648,-0.33073 z M 24.447352,9.9479473 C 24.369092,9.744006 24.062626,9.5137464 23.766315,9.4362594 23.241329,9.2989725 23.240107,9.3080419 23.718471,9.7913368 c 0.58881,0.5948782 0.924759,0.6670612 0.728881,0.1566105 z M 18.414342,5.3733989 C 18.258669,3.8450987 17.933511,3.1561076 17.612813,3.6750081 c -0.147184,0.2381484 0.107147,1.6546918 0.515904,2.8734293 0.274593,0.818715 0.42548,0.1979768 0.285625,-1.1750385 z"
       id="path473" /><path
       style="fill:#d36657"
       d="M 17.126008,43.401854 C 16.577135,43.295515 15.590886,42.822742 14.934343,42.351249 13.861814,41.581017 13.656939,41.523163 12.916249,41.781369 11.860728,42.149326 9.4245588,42.148103 8.0949972,41.77895 6.6638764,41.381598 4.4358441,39.211687 3.6931522,37.491933 3.366248,36.734963 3.0445312,35.341718 2.9782261,34.395833 2.8774827,32.958662 2.985507,32.32802 3.6355707,30.558281 4.0634154,29.393513 4.9828323,27.50259 5.6787195,26.356231 7.9118437,22.677525 8.6135924,20.809565 10.049979,14.720528 10.725853,11.855409 11.331426,10.627752 12.891611,8.9597883 13.756856,8.0347717 14.533517,7.5151685 15.670659,7.1005461 16.53867,6.7840534 17.305514,6.3774673 17.374758,6.1970215 17.444002,6.0165756 17.375008,5.413882 17.22144,4.8577023 16.874241,3.600253 17.28003,3.0266762 18.260293,3.3892989 c 0.435515,0.1611077 0.761487,0.6302186 1.061872,1.5281568 0.369262,1.1038316 0.568406,1.3352009 1.344914,1.5625524 1.378278,0.4035415 3.237182,1.587675 4.182392,2.6642101 1.195344,1.3614208 1.997844,3.3355228 3.043761,7.4874688 1.152602,4.575444 1.473414,5.437555 3.148896,8.46195 3.443236,6.215348 3.841093,7.681955 3.087347,11.380781 -0.295723,1.451189 -0.538443,1.893137 -1.770708,3.22413 -1.847311,1.995317 -3.067648,2.485748 -5.755976,2.313222 -1.087554,-0.06979 -2.164582,-0.282272 -2.393397,-0.472171 -0.351472,-0.291697 -0.527443,-0.241063 -1.134064,0.326317 -1.450743,1.356897 -3.775537,1.957089 -5.949322,1.535938 z m 6.548002,-3.563383 c 0.578674,-0.502162 0.987002,-0.978154 0.907394,-1.057762 -0.226113,-0.226113 -2.153835,1.291667 -2.86428,2.255173 l -0.640168,0.868197 0.77246,-0.576294 c 0.424852,-0.316961 1.24592,-0.987153 1.824594,-1.489314 z m 6.910269,0.211921 c 1.268318,-0.860704 1.557405,-1.211825 2.368239,-2.876434 0.481719,-0.988949 0.645048,-1.761651 0.646981,-3.060832 0.0035,-2.346695 -0.498253,-3.861864 -2.315818,-6.993335 -2.744593,-4.728642 -3.636634,-7.01885 -4.664251,-11.974903 -0.564142,-2.720776 -1.633287,-4.950786 -2.888825,-6.0254805 -1.346542,-1.1525898 -1.916196,-0.8671224 -0.627094,0.3142518 1.672449,1.5326847 2.42181,3.4525867 3.446351,8.8297317 0.208701,1.095334 0.622848,2.524084 0.920326,3.175 0.297479,0.650916 0.899538,1.989632 1.33791,2.974924 0.438371,0.985292 1.019482,2.116385 1.291357,2.513541 0.271875,0.397156 0.895038,1.674602 1.384807,2.838769 0.74032,1.759719 0.891383,2.451304 0.895786,4.101041 0.0065,2.430005 -0.573922,3.819187 -2.349073,5.622396 -1.355452,1.376876 -1.072088,1.66435 0.553304,0.56133 z m -0.05855,-1.751955 c 0.206483,-0.327422 0.454476,-0.892969 0.551095,-1.256771 0.159196,-0.599425 0.100414,-0.574612 -0.626791,0.264583 -0.80714,0.931441 -1.03783,1.5875 -0.558213,1.5875 0.142166,0 0.427425,-0.26789 0.633909,-0.595312 z M 5.0634472,37.74694 C 4.8964528,37.545724 4.6900667,36.608811 4.6048114,35.66491 4.3736917,33.10608 5.2261047,30.232625 7.0838765,27.308067 c 2.1943069,-3.454341 2.6527926,-4.534646 3.7752245,-8.89536 1.326698,-5.154301 1.397845,-5.383956 2.085587,-6.732042 0.585194,-1.147075 2.233684,-2.9494151 2.697649,-2.9494151 0.138092,0 -0.175868,0.3748615 -0.697688,0.8330257 -1.497662,1.3149644 -2.279142,3.4236324 -1.384753,3.7364784 0.240396,0.08409 0.19951,0.263651 -0.149689,0.657418 -0.342097,0.385759 -0.59402,1.444337 -0.874984,3.676676 -0.45982,3.653396 -1.412682,7.427826 -2.508263,9.935605 -0.4261559,0.975468 -0.8478741,2.138805 -0.9371518,2.585193 -0.089278,0.446388 -0.2660072,0.875695 -0.3927323,0.954016 -0.1267251,0.07832 -0.2304092,0.790218 -0.2304092,1.581994 0,1.344965 0.1790395,1.701526 0.6286318,1.251934 0.1944684,-0.194469 2.0881235,-0.142601 2.8461495,0.07796 0.491785,0.143091 0.489121,0.153736 1.26402,-5.049672 0.281725,-1.891771 0.590622,-3.677709 0.686437,-3.96875 0.171777,-0.521777 0.168366,-0.521995 -0.244264,-0.01558 -0.230161,0.282475 -0.418474,0.384364 -0.418474,0.226419 0,-0.157945 0.357187,-0.669542 0.79375,-1.136884 0.515052,-0.551365 0.79375,-0.70828 0.79375,-0.446905 0,0.221544 0.148828,0.472261 0.330729,0.557148 0.264083,0.123239 0.263751,0.185553 -0.0016,0.30923 -0.182807,0.08519 -0.261854,0.268999 -0.175659,0.408465 0.0862,0.139466 0.02535,0.411863 -0.135208,0.605325 -0.16056,0.193462 -0.217603,0.545434 -0.126762,0.78216 0.09084,0.236726 0.04587,0.43041 -0.09994,0.43041 -0.412141,0 -0.663922,1.977518 -0.648442,5.092941 0.01141,2.29734 0.110692,3.009319 0.516505,3.704167 0.737345,1.262509 1.264201,1.126135 1.276597,-0.330441 0.02124,-2.496287 0.131589,-3.439584 0.402357,-3.439584 0.154109,0 0.205955,0.120128 0.115214,0.266951 -0.09074,0.146823 -0.08776,0.51028 0.0066,0.807681 0.130928,0.412517 0.254446,0.47199 0.520936,0.250823 0.192124,-0.159449 0.647272,-0.215125 1.011439,-0.123725 0.850203,0.213388 1.769744,-0.278381 1.769744,-0.946455 0,-0.285922 0.119062,-0.519858 0.264583,-0.519858 0.145521,0 0.264583,0.297656 0.264583,0.661458 0,0.8397 0.92756,0.925531 1.141958,0.105671 0.09182,-0.351129 0.263453,-0.482791 0.466095,-0.357551 0.237183,0.146586 0.272798,-0.0016 0.136694,-0.568692 -0.101233,-0.42181 -0.301071,-1.406862 -0.444084,-2.189003 -0.143013,-0.782142 -0.438986,-1.734642 -0.657718,-2.116667 -0.342185,-0.597642 -0.375391,-0.611499 -0.237906,-0.09928 0.08929,0.33267 0.04074,0.595312 -0.110056,0.595312 -0.148413,0 -0.223594,0.365437 -0.167068,0.812082 0.08072,0.637806 0.02986,0.751568 -0.236992,0.530101 -0.250334,-0.207759 -0.468214,-0.140048 -0.827757,0.257243 l -0.487991,0.539224 -0.324241,-0.60585 c -0.412882,-0.771477 -0.446497,-5.568075 -0.04519,-6.448839 0.29844,-0.655005 1.273017,-1.094648 1.759738,-0.793838 0.406842,0.251442 0.638431,-2.435819 0.517695,-6.007126 C 20.430684,11.042618 19.471248,9.0062909 17.383905,8.9917817 17.06333,8.9895534 16.624755,8.8762595 16.409294,8.7400175 16.150495,8.5763726 16.554565,8.5311625 17.599919,8.6068022 18.901382,8.7009734 19.01916,8.6790017 18.263365,8.4830348 17.757955,8.3519893 17.301548,8.1161031 17.249128,7.9588434 17.084023,7.4635284 15.832967,7.6472671 14.649915,8.3405817 12.630406,9.5240929 11.251801,12.157619 10.428769,16.404166 9.7679943,19.813529 8.7607361,22.5021 6.8382312,25.988025 4.3468576,30.505433 3.96875,31.567821 3.96875,34.050552 c 0,1.526172 0.1389123,2.317248 0.5594543,3.185972 0.3076998,0.635623 0.6223226,1.09281 0.6991616,1.015971 0.076839,-0.07684 0.00308,-0.304339 -0.1639187,-0.505555 z M 19.182292,30.197243 c 0.878128,-0.5439 1.068952,-0.524209 0.83474,0.08614 -0.08946,0.233138 -0.472367,0.407689 -0.892582,0.406893 l -0.735908,-0.0014 z m -5.667654,-6.539084 c 0.0127,-0.308224 0.07539,-0.370919 0.159853,-0.159852 0.07643,0.190996 0.06703,0.419199 -0.02089,0.507118 -0.08792,0.08792 -0.150452,-0.06835 -0.138964,-0.347266 z m 0.879888,-0.944873 c -0.122915,-0.198881 -0.07188,-0.233213 0.146258,-0.0984 0.195177,0.120626 0.431458,0.05485 0.565996,-0.157557 0.182656,-0.288379 0.231798,-0.267804 0.235002,0.0984 0.0045,0.518849 -0.656057,0.628726 -0.947256,0.157557 z m -3.988756,1.203058 c 0.0249,-0.492372 0.154412,-0.895755 0.287806,-0.896408 0.133394,-6.52e-4 0.164193,-0.07953 0.06844,-0.17528 -0.09575,-0.09575 -0.04149,-0.333876 0.120591,-0.529166 0.213113,-0.256785 0.213966,-0.355074 0.0031,-0.355074 -0.384961,0 -1.4552163,2.066592 -1.5126031,2.920736 -0.024824,0.369478 -0.4161963,1.329264 -0.8697164,2.132857 -0.8846753,1.567559 -1.9037933,4.286324 -1.8651763,4.975849 0.041527,0.741491 3.7204718,-7.142098 3.7675748,-8.073514 z m 16.004103,7.582162 c 0.08863,-0.265882 0.161032,-0.260974 0.34102,0.02312 0.178826,0.282256 0.229385,0.260003 0.232555,-0.102354 0.0048,-0.544166 -0.101248,-0.563906 -0.873238,-0.162598 -0.317855,0.165232 -0.492811,0.209109 -0.38879,0.0975 0.104021,-0.111605 0.07393,-0.418163 -0.06686,-0.68124 -0.167093,-0.312215 -0.16386,-0.535261 0.0093,-0.642285 0.301616,-0.186409 0.3259,-2.13318 0.0358,-2.870364 -0.157456,-0.400123 -0.2454,-0.424095 -0.485332,-0.132292 -0.500647,0.608883 -0.553454,4.089239 -0.05739,3.782657 0.170792,-0.105555 0.265155,0.02145 0.234115,0.315114 -0.0286,0.270569 -0.03829,0.570705 -0.02153,0.666969 0.05299,0.304411 0.922793,0.05841 1.040341,-0.294228 z m -0.03538,-2.179366 c -0.08446,-0.211067 -0.147157,-0.148372 -0.159853,0.159853 -0.01149,0.278915 0.05105,0.435184 0.138964,0.347265 0.08792,-0.08792 0.09732,-0.316122 0.02089,-0.507118 z M 18.414342,5.3733989 C 18.258669,3.8450987 17.933511,3.1561076 17.612813,3.6750081 c -0.147184,0.2381484 0.107147,1.6546918 0.515904,2.8734293 0.274593,0.818715 0.42548,0.1979768 0.285625,-1.1750385 z"
       id="path472" /><path
       style="fill:#cd534e"
       d="M 17.126008,43.401854 C 16.577135,43.295515 15.590886,42.822742 14.934343,42.351249 13.861814,41.581017 13.656939,41.523163 12.916249,41.781369 11.860728,42.149326 9.4245588,42.148103 8.0949972,41.77895 6.6638764,41.381598 4.4358441,39.211687 3.6931522,37.491933 3.366248,36.734963 3.0445312,35.341718 2.9782261,34.395833 2.8774827,32.958662 2.985507,32.32802 3.6355707,30.558281 4.0634154,29.393513 4.9828323,27.50259 5.6787195,26.356231 7.9118437,22.677525 8.6135924,20.809565 10.049979,14.720528 10.725853,11.855409 11.331426,10.627752 12.891611,8.9597883 13.756856,8.0347717 14.533517,7.5151685 15.670659,7.1005461 16.53867,6.7840534 17.305514,6.3774673 17.374758,6.1970215 17.444002,6.0165756 17.375008,5.413882 17.22144,4.8577023 16.874241,3.600253 17.28003,3.0266762 18.260293,3.3892989 c 0.435515,0.1611077 0.761487,0.6302186 1.061872,1.5281568 0.369262,1.1038316 0.568406,1.3352009 1.344914,1.5625524 1.378278,0.4035415 3.237182,1.587675 4.182392,2.6642101 1.195344,1.3614208 1.997844,3.3355228 3.043761,7.4874688 1.152602,4.575444 1.473414,5.437555 3.148896,8.46195 3.443236,6.215348 3.841093,7.681955 3.087347,11.380781 -0.295723,1.451189 -0.538443,1.893137 -1.770708,3.22413 -1.847311,1.995317 -3.067648,2.485748 -5.755976,2.313222 -1.087554,-0.06979 -2.164582,-0.282272 -2.393397,-0.472171 -0.351472,-0.291697 -0.527443,-0.241063 -1.134064,0.326317 -1.450743,1.356897 -3.775537,1.957089 -5.949322,1.535938 z m 6.548002,-3.563383 c 0.578674,-0.502162 0.987002,-0.978154 0.907394,-1.057762 -0.226113,-0.226113 -2.153835,1.291667 -2.86428,2.255173 l -0.640168,0.868197 0.77246,-0.576294 c 0.424852,-0.316961 1.24592,-0.987153 1.824594,-1.489314 z m 6.910269,0.211921 c 1.268318,-0.860704 1.557405,-1.211825 2.368239,-2.876434 0.481719,-0.988949 0.645048,-1.761651 0.646981,-3.060832 0.0035,-2.346695 -0.498253,-3.861864 -2.315818,-6.993335 C 28.539088,22.391149 27.647047,20.100941 26.61943,15.144888 26.052972,12.412941 24.986805,10.194669 23.718378,9.1089422 23.060089,8.5454715 22.559022,8.2913946 22.406626,8.4437904 c -0.152396,0.1523958 0.126042,0.5737624 0.728927,1.103102 1.658268,1.4559786 2.383867,3.3083846 3.414309,8.7164986 0.208701,1.095334 0.622848,2.524084 0.920326,3.175 0.297479,0.650916 0.899538,1.989632 1.33791,2.974924 0.438371,0.985292 1.019482,2.116385 1.291357,2.513541 0.271875,0.397156 0.895038,1.674602 1.384807,2.838769 0.74032,1.759719 0.891383,2.451304 0.895786,4.101041 0.0065,2.430005 -0.573922,3.819187 -2.349073,5.622396 -1.355452,1.376876 -1.072088,1.66435 0.553304,0.56133 z m -0.05855,-1.751955 c 0.206483,-0.327422 0.454476,-0.892969 0.551095,-1.256771 0.159196,-0.599425 0.100414,-0.574612 -0.626791,0.264583 -0.80714,0.931441 -1.03783,1.5875 -0.558213,1.5875 0.142166,0 0.427425,-0.26789 0.633909,-0.595312 z M 5.193438,37.901287 C 3.8081811,35.222495 4.7845955,30.690376 7.6587447,26.458333 8.4544125,25.286751 8.4665727,25.280404 8.4190196,26.061458 8.3924402,26.49802 8.2848733,26.97427 8.179982,27.119791 c -0.1048914,0.145521 -0.5938948,1.276615 -1.0866744,2.513542 -0.6622575,1.662334 -0.8490288,2.456002 -0.7160304,3.042708 0.1561957,0.689039 0.2032579,0.723943 0.3567494,0.264583 0.2207508,-0.660648 1.3227424,-3.108158 2.5308603,-5.621008 0.9799551,-2.03828 1.7623261,-2.6652 1.2523391,-1.003511 -0.154639,0.503858 -0.380256,0.854862 -0.501371,0.780008 -0.1211158,-0.07485 -0.1493046,0.04868 -0.062642,0.27452 0.086663,0.225839 0.040212,0.410617 -0.103223,0.410617 -0.3383486,0 -0.7106738,0.963061 -1.3746002,3.555559 -0.6230732,2.432976 -0.6294394,2.519198 -0.2581152,3.495855 0.2239824,0.589118 0.3287002,0.658507 0.5251152,0.347954 0.2051873,-0.324424 0.2460035,-0.312131 0.2493919,0.07511 0.00223,0.254661 0.1358524,0.46302 0.2969423,0.46302 0.16109,0 0.2304335,-0.162761 0.1540968,-0.361691 -0.1121081,-0.292149 -0.016205,-0.304867 0.498795,-0.06615 0.3506741,0.16255 0.6385181,0.384843 0.6396531,0.493983 0.0011,0.109141 0.354663,0.198438 0.785616,0.198438 0.904368,0 1.06874,-0.430378 1.58566,-4.151757 0.390351,-2.810184 0.487705,-3.29433 0.701949,-3.490814 0.09754,-0.08945 0.08522,0.551738 -0.02738,1.424863 -0.340615,2.641346 -0.171186,4.339155 0.557017,5.581739 0.360029,0.614343 0.819523,1.180275 1.021096,1.257626 0.474961,0.18226 1.03823,-0.498495 0.839966,-1.015163 -0.08447,-0.220134 -0.0085,-0.418218 0.168837,-0.440186 1.310785,-0.162377 2.086072,-0.230886 3.276939,-0.289569 0.751858,-0.03705 1.456311,-0.156661 1.565452,-0.265802 0.10914,-0.10914 0.430525,-0.198437 0.714189,-0.198437 0.489621,0 0.508227,-0.151532 0.367249,-2.990837 -0.08168,-1.64496 -0.32134,-3.520195 -0.532587,-4.167188 -0.374851,-1.14807 -0.97308,-8.879437 -0.969546,-12.530178 0.0019,-2.010976 -0.623582,-4.372931 -1.370405,-5.1745504 C 18.666605,8.8904301 18.663525,8.7388814 19.248438,8.7022606 19.503099,8.6863165 19.181607,8.5693936 18.534012,8.442432 17.886416,8.3154703 17.260248,8.0394831 17.142527,7.8291271 16.650313,6.9495886 13.908745,8.4296073 12.655188,10.25159 c -1.100245,1.599152 -1.670533,3.161406 -2.306394,6.318173 -0.7445603,3.696411 -1.6141748,6.07708 -3.300703,9.03605 -1.9708518,3.457809 -2.7667841,5.258321 -3.0846816,6.977986 -0.3692597,1.99751 0.1116521,4.427047 1.1311768,5.714638 0.4449522,0.561944 0.4936481,0.366302 0.098852,-0.39715 z M 18.520833,25.135416 c 0,-1.018646 0.09525,-1.852083 0.211667,-1.852083 0.843837,0 1.187848,2.297884 0.437268,2.92081 -0.326998,0.271384 -0.340311,0.383597 -0.06615,0.557512 0.25534,0.161974 0.224665,0.218779 -0.119768,0.221793 -0.397261,0.0035 -0.463021,-0.258988 -0.463021,-1.848032 z m -7.14375,-3.93752 c 0,-0.291042 0.119063,-0.602751 0.264584,-0.692688 0.145521,-0.08994 0.264583,0.0746 0.264583,0.365645 0,0.291042 -0.119062,0.602751 -0.264583,0.692688 -0.145521,0.08994 -0.264584,-0.0746 -0.264584,-0.365645 z m -0.981075,-0.303031 c 0.09158,-0.364889 0.303439,-1.301907 0.470796,-2.082262 0.200919,-0.936857 0.37828,-1.299099 0.522115,-1.066369 0.119807,0.193852 0.159632,0.446627 0.0885,0.561722 -0.07113,0.115095 -0.188616,0.701108 -0.261075,1.302252 -0.07246,0.601144 -0.324142,1.285387 -0.559296,1.520541 -0.39368,0.393681 -0.41436,0.374993 -0.26104,-0.235884 z m 1.53289,-6.21049 c 0.02755,-0.50118 0.468513,-1.345102 0.483871,-0.926042 0.008,0.218281 -0.100871,0.575469 -0.241936,0.79375 -0.141064,0.218281 -0.249935,0.277813 -0.241935,0.132292 z m 14.397586,18.123242 c 0.108252,-0.175155 0.34719,-0.167239 0.703213,0.0233 0.505769,0.270679 0.527609,0.233763 0.351773,-0.594597 -0.360162,-1.696711 -1.706699,-5.662768 -2.098627,-6.181247 -0.393068,-0.519986 -0.395247,-0.519952 -0.407647,0.0064 -0.01035,0.439318 -0.05601,0.46178 -0.268946,0.132292 -0.197905,-0.306236 -0.257406,-0.314878 -0.260532,-0.03784 -0.0024,0.209806 -0.16901,0.295736 -0.400926,0.206742 -0.218282,-0.08376 -0.396875,-0.03697 -0.396875,0.103984 0,0.140953 0.148828,0.265679 0.330729,0.277167 0.227802,0.01439 0.236543,0.05951 0.02809,0.144978 -0.307551,0.126102 -0.191286,1.064773 0.193595,1.562999 0.11627,0.150511 0.329538,1.007228 0.473929,1.903816 0.144391,0.896587 0.393441,1.87477 0.553445,2.173739 0.308653,0.576724 0.925793,0.719985 1.198781,0.278281 z m 2.496619,-4.622868 c -1.35013,-2.742502 -1.38044,-2.012578 -0.03818,0.919417 0.366405,0.800365 0.716118,1.309361 0.777141,1.131104 0.06102,-0.178258 -0.271511,-1.100992 -0.738962,-2.050521 z M 21.375073,8.1455298 C 20.979492,8.0102137 20.479482,7.9996369 20.2609,8.1219616 c -0.266183,0.1489632 -0.03027,0.229661 0.717635,0.2454816 1.01189,0.021405 1.048293,0.00103 0.396538,-0.2219134 z M 18.414342,5.3733989 C 18.258669,3.8450987 17.933511,3.1561076 17.612813,3.6750081 c -0.147184,0.2381484 0.107147,1.6546918 0.515904,2.8734293 0.274593,0.818715 0.42548,0.1979768 0.285625,-1.1750385 z"
       id="path471" /><path
       style="fill:#a9515b"
       d="M 17.126008,43.401854 C 16.577135,43.295515 15.590886,42.822742 14.934343,42.351249 13.861814,41.581017 13.656939,41.523163 12.916249,41.781369 11.860728,42.149326 9.4245588,42.148103 8.0949972,41.77895 6.6638764,41.381598 4.4358441,39.211687 3.6931522,37.491933 3.366248,36.734963 3.0445312,35.341718 2.9782261,34.395833 2.8774827,32.958662 2.985507,32.32802 3.6355707,30.558281 4.0634154,29.393513 4.9828323,27.50259 5.6787195,26.356231 7.9118437,22.677525 8.6135924,20.809565 10.049979,14.720528 10.725853,11.855409 11.331426,10.627752 12.891611,8.9597883 13.756856,8.0347717 14.533517,7.5151685 15.670659,7.1005461 16.53867,6.7840534 17.305514,6.3774673 17.374758,6.1970215 17.444002,6.0165756 17.375008,5.413882 17.22144,4.8577023 16.874241,3.600253 17.28003,3.0266762 18.260293,3.3892989 c 0.435515,0.1611077 0.761487,0.6302186 1.061872,1.5281568 0.369262,1.1038316 0.568406,1.3352009 1.344914,1.5625524 1.378278,0.4035415 3.237182,1.587675 4.182392,2.6642101 1.195344,1.3614208 1.997844,3.3355228 3.043761,7.4874688 1.152602,4.575444 1.473414,5.437555 3.148896,8.46195 3.443236,6.215348 3.841093,7.681955 3.087347,11.380781 -0.295723,1.451189 -0.538443,1.893137 -1.770708,3.22413 -1.847311,1.995317 -3.067648,2.485748 -5.755976,2.313222 -1.087554,-0.06979 -2.164582,-0.282272 -2.393397,-0.472171 -0.351472,-0.291697 -0.527443,-0.241063 -1.134064,0.326317 -1.450743,1.356897 -3.775537,1.957089 -5.949322,1.535938 z m 6.548002,-3.563383 c 0.578674,-0.502162 0.987002,-0.978154 0.907394,-1.057762 -0.226113,-0.226113 -2.153835,1.291667 -2.86428,2.255173 l -0.640168,0.868197 0.77246,-0.576294 c 0.424852,-0.316961 1.24592,-0.987153 1.824594,-1.489314 z M 8.9958333,40.6444 c 0,-0.05579 -0.2382893,-0.163747 -0.5295317,-0.239909 -0.2912425,-0.07616 -0.4628095,-0.03052 -0.3812601,0.101433 0.1424122,0.230428 0.9107918,0.347251 0.9107918,0.138476 z M 30.584279,40.050392 c 1.268318,-0.860704 1.557405,-1.211825 2.368239,-2.876434 0.481719,-0.988949 0.645048,-1.761651 0.646981,-3.060832 0.0035,-2.346695 -0.498253,-3.861864 -2.315818,-6.993335 C 28.539088,22.391149 27.647047,20.100941 26.61943,15.144888 26.400388,14.088482 25.897976,12.503972 25.502958,11.623755 24.253541,8.8396836 21.222763,6.8230701 20.050215,7.9956184 19.431045,8.6147878 18.225632,8.5945696 17.407845,7.9512985 16.618767,7.3306097 15.917952,7.457303 14.388427,8.4971483 12.392237,9.8542552 11.237657,12.170514 10.332534,16.633869 9.6174327,20.160187 8.6783269,22.760287 7.166377,25.4 c -2.9158206,5.09073 -3.6638649,7.282422 -3.3162656,9.716315 0.1938678,1.357463 1.2107537,3.486548 2.0112273,4.210966 0.8296904,0.75086 0.8249911,0.220187 -0.010068,-1.136957 -1.5688236,-2.549664 -1.5369167,-5.198458 0.1042809,-8.657025 0.7177697,-1.512587 0.9452739,-1.116402 0.3296198,0.574013 -0.5215976,1.432163 -0.5352703,1.665617 -0.2091944,3.571875 0.1918831,1.12176 0.4213329,2.038708 0.5098884,2.037664 0.088556,-0.001 0.1891309,-0.587494 0.2235008,-1.303222 0.059349,-1.23589 0.9383107,-4.106021 1.4167184,-4.626102 0.4372992,-0.475391 0.5398761,0.598712 0.132424,1.386637 -0.6471266,1.251405 -0.8230565,3.520842 -0.3437937,4.434825 0.3956533,0.754534 0.4504759,0.771219 2.5341095,0.771219 h 2.129708 l 0.219823,-0.926042 0.219823,-0.926042 0.735408,0.79375 c 0.404474,0.436563 0.926528,1.00211 1.16012,1.256771 0.233592,0.254662 0.649033,0.463021 0.923202,0.463021 0.274169,0 0.432614,0.106587 0.352102,0.236859 -0.197351,0.31932 0.488463,0.556891 1.60762,0.556891 0.628054,0 0.860106,-0.09694 0.73123,-0.305464 -0.112888,-0.182655 -0.07299,-0.233897 0.09924,-0.127455 0.342084,0.211419 2.439571,-0.57848 2.439571,-0.918726 0,-0.12972 0.158474,-0.235855 0.352165,-0.235855 0.365308,0 0.798545,-0.710709 1.129001,-1.852083 0.295952,-1.022198 0.135115,-2.734962 -0.557763,-5.939667 -0.891854,-4.12501 -1.582438,-13.437198 -0.989549,-13.343584 0.657117,0.103755 0.909645,-0.0771 0.783137,-0.560864 -0.07616,-0.291242 -0.03052,-0.46281 0.101433,-0.38126 0.13195,0.08155 0.239909,-0.394536 0.239909,-1.057968 0,-0.823881 -0.104836,-1.185273 -0.330729,-1.140094 -0.194416,0.03888 -0.294589,-0.142536 -0.243043,-0.440167 0.109675,-0.633285 -0.464136,-1.7426458 -0.901375,-1.7426458 -0.19586,0 -0.283019,0.2391748 -0.216941,0.5953128 0.06075,0.327422 0.03352,0.416718 -0.06052,0.198437 C 20.378352,10.365052 20.186559,9.9637307 20.046184,9.6915082 19.846918,9.3050821 19.86926,9.2437017 20.148082,9.411568 c 0.298823,0.1799079 0.29932,0.143705 0.003,-0.2217529 -0.308445,-0.3804727 -0.269767,-0.4579238 0.30011,-0.6009537 0.724175,-0.1817564 2.416622,0.5588341 3.133112,1.371005 0.909569,1.0310326 2.064927,3.8074376 2.472681,5.9420226 0.662918,3.470361 0.912437,4.43598 1.452015,5.619171 0.276106,0.605448 0.860678,1.906963 1.29905,2.892255 0.438371,0.985292 1.019482,2.116385 1.291357,2.513541 0.271875,0.397156 0.895038,1.674602 1.384807,2.838769 0.74032,1.759719 0.891383,2.451304 0.895786,4.101041 0.0065,2.430005 -0.573922,3.819187 -2.349073,5.622396 -1.355452,1.376876 -1.072088,1.66435 0.553304,0.56133 z M 6.7638858,27.968276 c 0.099359,-0.260937 0.2473039,-0.407781 0.3287657,-0.326319 0.081462,0.08146 1.678e-4,0.294956 -0.1806533,0.474431 C 6.6506915,28.375751 6.6203005,28.34536 6.7638858,27.968276 Z M 20.902083,13.345843 c 0,-0.517911 0.09921,-0.880341 0.220469,-0.805399 0.20855,0.128891 0.09906,1.747056 -0.118207,1.747056 -0.05624,0 -0.102262,-0.423746 -0.102262,-0.941657 z M 20.6375,11.773958 c 0,-0.218281 0.115326,-0.396875 0.256279,-0.396875 0.140954,0 0.187747,0.178594 0.103985,0.396875 -0.08376,0.218281 -0.199088,0.396875 -0.25628,0.396875 -0.05719,0 -0.103984,-0.178594 -0.103984,-0.396875 z m -6.35,28.342813 c 0,-0.05494 -0.208359,-0.263301 -0.463021,-0.463021 -0.419644,-0.329107 -0.429002,-0.319749 -0.0999,0.09989 0.345644,0.440729 0.562916,0.580887 0.562916,0.363126 z m 16.238226,-1.818334 c 0.206483,-0.327422 0.454476,-0.892969 0.551095,-1.256771 0.159196,-0.599425 0.100414,-0.574612 -0.626791,0.264583 -0.80714,0.931441 -1.03783,1.5875 -0.558213,1.5875 0.142166,0 0.427425,-0.26789 0.633909,-0.595312 z M 15.875,38.109308 c 0,-0.1404 -0.267891,-0.393948 -0.595312,-0.563439 l -0.595313,-0.308166 0.529167,0.547715 c 0.619429,0.641141 0.661458,0.661721 0.661458,0.32389 z m 10.583333,-3.994502 c 0,-0.136477 -0.148828,-0.25754 -0.330729,-0.269028 -0.262826,-0.0166 -0.262487,-0.0484 0.0016,-0.15489 0.182807,-0.0737 0.263275,-0.27266 0.178816,-0.442132 -0.08446,-0.169473 0.03856,-0.07059 0.273382,0.219746 0.367421,0.454284 0.462765,0.472728 0.683888,0.132292 0.452372,-0.696462 -0.233488,-3.861162 -1.552697,-7.164469 -0.440699,-1.103511 -0.881281,-2.432881 -0.979073,-2.954156 -0.182073,-0.97053 -1.295418,-2.293931 -1.639967,-1.949382 -0.105501,0.1055 -0.02001,0.298002 0.189979,0.427782 0.3252,0.200985 0.318124,0.260398 -0.04774,0.400792 -0.236243,0.09066 -0.487768,0.387516 -0.558943,0.659692 -0.150944,0.577208 0.351549,3.102321 1.105224,5.553947 0.290782,0.945885 0.608454,2.493697 0.705937,3.439583 0.09748,0.945885 0.329288,1.842284 0.515122,1.991996 0.438452,0.353228 1.455148,0.428844 1.455148,0.108227 z m 2.724099,-5.297377 c -0.261327,-0.627035 -0.983771,-2.158487 -1.605431,-3.403226 -0.873297,-1.748588 -1.098729,-2.052608 -0.991479,-1.33712 0.166261,1.109167 2.802207,6.61188 2.961031,6.181351 0.06106,-0.165517 -0.102794,-0.813969 -0.364121,-1.441005 z M 18.414342,5.3733989 C 18.258669,3.8450987 17.933511,3.1561076 17.612813,3.6750081 c -0.147184,0.2381484 0.107147,1.6546918 0.515904,2.8734293 0.274593,0.818715 0.42548,0.1979768 0.285625,-1.1750385 z"
       id="path470" /><path
       style="fill:#c8443c"
       d="m 18.123958,43.518156 c -0.14552,-0.04574 -0.698041,-0.155388 -1.227824,-0.243673 -0.529782,-0.08828 -1.469482,-0.561121 -2.088222,-1.050747 C 13.726985,41.368367 13.648476,41.347902 12.803089,41.701128 11.65506,42.180805 9.6919303,42.168373 8.016474,41.670816 7.0021077,41.369582 6.3773942,40.944227 5.4456677,39.920406 3.9011408,38.223214 3.4478113,37.161273 3.2002427,34.660416 3.0244831,32.88495 3.0795037,32.461767 3.7228691,30.640703 c 0.3954866,-1.119436 1.40507,-3.18496 2.2435187,-4.590052 2.0062667,-3.362151 2.6600651,-5.041205 3.7561942,-9.646485 0.502226,-2.110052 1.169241,-4.368668 1.482257,-5.019146 0.845663,-1.7573749 2.973649,-3.7915754 4.405578,-4.2114141 1.463044,-0.4289615 1.846047,-0.7257406 1.872971,-1.4513153 0.02255,-0.6077563 0.106859,-0.4443053 0.357884,0.6938551 0.09012,0.4085991 0.338794,0.7276042 0.567193,0.7276042 0.327976,0 0.385797,-0.2689268 0.298661,-1.3890625 C 18.647695,4.990703 18.499643,4.1274999 18.378122,3.8364583 18.1943,3.3962076 18.221457,3.3594049 18.539746,3.6174342 c 0.210414,0.1705785 0.541429,0.8481582 0.735588,1.5057328 0.300335,1.0171744 0.477666,1.2220281 1.18832,1.3727546 1.213559,0.2573908 3.780325,1.8770686 4.51824,2.8510954 0.894604,1.180852 1.871848,3.450774 2.354785,5.469649 1.144125,4.78291 1.317123,5.443823 1.489005,5.688542 0.102209,0.145521 0.326051,0.740833 0.497426,1.322917 0.171376,0.582083 0.900428,2.070364 1.620117,3.307291 3.071268,5.27858 3.814141,7.8506 3.170732,10.977904 -0.422687,2.054484 -0.752252,2.673292 -2.144301,4.026245 -1.861207,1.808936 -4.723001,2.422849 -7.191554,1.542735 -0.992371,-0.35381 -1.049091,-0.340078 -2.188858,0.529925 -0.643548,0.491231 -1.613851,0.964423 -2.156229,1.051538 -0.542378,0.08712 -1.224267,0.198701 -1.515309,0.24797 -0.291041,0.04927 -0.648229,0.05216 -0.79375,0.0064 z m 2.657132,-1.304784 c 0.506189,-0.211499 1.544162,-0.969433 2.306606,-1.684297 0.762444,-0.714865 1.74345,-1.489553 2.180012,-1.72153 0.736473,-0.39134 0.749537,-0.42254 0.181044,-0.432369 -0.842106,-0.01456 -1.523032,0.374327 -3.242658,1.851927 -0.837281,0.719439 -1.946907,1.393952 -2.568516,1.561334 -0.601921,0.162081 -1.165987,0.410519 -1.25348,0.552086 -0.242947,0.393096 1.354696,0.308348 2.396992,-0.127151 z M 15.345833,41.19461 c 0,-0.04421 -0.446484,-0.490698 -0.992187,-0.992187 l -0.992188,-0.911799 0.911799,0.992188 c 0.848682,0.923506 1.072576,1.113839 1.072576,0.911798 z M 30.12013,40.41807 c 1.269568,-0.592862 2.420918,-1.997377 3.104373,-3.78698 0.334084,-0.874785 0.414468,-1.708388 0.323365,-3.353368 C 33.418172,30.935906 32.977318,29.83421 30.44846,25.532291 29.060083,23.17048 27.988772,20.380557 27.248119,17.197916 26.009877,11.877104 25.18267,10.130619 23.17572,8.5998429 22.012267,7.7124343 20.468188,7.3075973 20.265141,7.8367281 20.058003,8.3765202 17.497922,8.3376695 17.288357,7.7915539 17.082422,7.2548941 15.85971,7.5089061 14.491577,8.3725708 c -2.00413,1.2651521 -3.293244,3.7965822 -4.19638,8.2404302 -0.761838,3.748591 -1.6661346,6.141045 -3.58308,9.479584 -2.8588731,4.978993 -3.4752565,7.354101 -2.6474836,10.20154 0.5444037,1.872683 2.3141901,3.990575 2.858463,3.420705 0.1941199,-0.20325 0.2274949,-0.299968 0.074167,-0.21493 -0.3822459,0.211999 -1.8895272,-2.375724 -2.2071167,-3.789211 -0.3402865,-1.514504 0.1262778,-3.987592 1.1654049,-6.17739 0.7177697,-1.512587 0.9452739,-1.116402 0.3296198,0.574013 -0.5215976,1.432163 -0.5352703,1.665617 -0.2091944,3.571875 0.1918831,1.12176 0.4213329,2.038708 0.5098884,2.037664 0.088556,-0.001 0.1891309,-0.587494 0.2235008,-1.303222 0.059349,-1.23589 0.9383107,-4.106021 1.4167184,-4.626102 0.4372992,-0.475391 0.5398761,0.598712 0.132424,1.386637 -0.6471266,1.251405 -0.8230565,3.520842 -0.3437937,4.434825 0.3956533,0.754534 0.4504759,0.771219 2.5341095,0.771219 h 2.129708 l 0.219823,-0.926042 0.219823,-0.926042 0.735408,0.79375 c 0.404474,0.436563 0.926528,1.00211 1.16012,1.256771 0.233592,0.254662 0.649033,0.463021 0.923202,0.463021 0.274169,0 0.432614,0.106587 0.352102,0.236859 -0.197351,0.31932 0.488463,0.556891 1.60762,0.556891 0.628054,0 0.860106,-0.09694 0.73123,-0.305464 -0.112888,-0.182655 -0.07299,-0.233897 0.09924,-0.127455 0.342084,0.211419 2.439571,-0.57848 2.439571,-0.918726 0,-0.12972 0.158474,-0.235855 0.352165,-0.235855 0.365308,0 0.798545,-0.710709 1.129001,-1.852083 0.295952,-1.022198 0.135115,-2.734962 -0.557763,-5.939667 -0.891854,-4.12501 -1.582438,-13.437198 -0.989549,-13.343584 0.657117,0.103755 0.909645,-0.0771 0.783137,-0.560864 -0.07616,-0.291242 -0.03052,-0.46281 0.101433,-0.38126 0.13195,0.08155 0.239909,-0.394536 0.239909,-1.057968 0,-0.823881 -0.104836,-1.185273 -0.330729,-1.140094 -0.194416,0.03888 -0.294589,-0.142536 -0.243043,-0.440167 0.109675,-0.633285 -0.464136,-1.7426458 -0.901375,-1.7426458 -0.19586,0 -0.283019,0.2391748 -0.216941,0.5953128 0.06075,0.327422 0.03352,0.416718 -0.06052,0.198437 C 20.378352,10.365052 20.186559,9.9637307 20.046184,9.6915082 19.846918,9.3050821 19.86926,9.2437017 20.148082,9.411568 c 0.298823,0.1799079 0.29932,0.143705 0.003,-0.2217529 -0.308494,-0.3805326 -0.269584,-0.4579698 0.302232,-0.6014864 0.713518,-0.1790817 2.04829,0.3822781 3.019392,1.2698536 0.915063,0.8363567 2.095591,4.0158137 2.676114,7.2074427 0.621546,3.417173 1.13096,4.805823 3.20298,8.73125 0.844938,1.600729 1.53505,2.969947 1.533581,3.042708 -0.0015,0.07276 0.256017,0.700147 0.572192,1.394192 1.105704,2.427172 1.176832,5.425567 0.165326,6.96932 -0.541223,0.826011 -0.719305,0.805139 -0.395565,-0.04636 0.333376,-0.876844 0.3302,-1.702567 -0.0065,-1.702567 -0.14552,0 -0.264583,0.118032 -0.264583,0.262294 0,0.144262 -0.416719,0.808225 -0.926042,1.475474 -0.950446,1.245152 -1.175175,2.10384 -0.600717,2.295326 0.672394,0.224132 -1.216204,1.091204 -2.664801,1.223434 -1.279951,0.116837 -1.381905,0.16251 -0.703232,0.315038 1.129716,0.253897 2.725263,0.01501 4.058672,-0.607662 z M 6.7638858,27.968276 c 0.099359,-0.260937 0.2473039,-0.407781 0.3287657,-0.326319 0.081462,0.08146 1.678e-4,0.294956 -0.1806533,0.474431 C 6.6506915,28.375751 6.6203005,28.34536 6.7638858,27.968276 Z M 20.902083,13.345843 c 0,-0.517911 0.09921,-0.880341 0.220469,-0.805399 0.20855,0.128891 0.09906,1.747056 -0.118207,1.747056 -0.05624,0 -0.102262,-0.423746 -0.102262,-0.941657 z M 20.6375,11.773958 c 0,-0.218281 0.115326,-0.396875 0.256279,-0.396875 0.140954,0 0.187747,0.178594 0.103985,0.396875 -0.08376,0.218281 -0.199088,0.396875 -0.25628,0.396875 -0.05719,0 -0.103984,-0.178594 -0.103984,-0.396875 z M 9.2427819,40.652769 C 8.4626503,40.245656 7.14375,39.880035 7.14375,40.070883 c 0,0.268896 1.4832972,0.918727 2.1166667,0.92731 l 0.6614583,0.009 z M 12.7,38.761458 c -0.363802,-0.207968 -1.018646,-0.372761 -1.455208,-0.366207 -0.689822,0.01036 -0.637857,0.05657 0.396875,0.352943 1.603694,0.459339 1.843927,0.46235 1.058333,0.01326 z m 3.175,-0.65215 c 0,-0.1404 -0.267891,-0.393948 -0.595312,-0.563439 l -0.595313,-0.308166 0.529167,0.547715 c 0.619429,0.641141 0.661458,0.661721 0.661458,0.32389 z m 10.469504,-2.360686 c -0.07978,-0.129091 0.05333,-0.218388 0.295802,-0.198437 0.79742,0.06561 1.670111,-1.603088 1.670111,-3.19347 0,-0.887089 -0.100646,-1.369493 -0.264584,-1.268174 -0.14552,0.08994 -0.264583,-0.07566 -0.264583,-0.367996 0,-0.292334 -0.338343,-1.043502 -0.751873,-1.669261 -0.85264,-1.290224 -2.027263,-4.137649 -2.294498,-5.562132 -0.183103,-0.976022 -1.295577,-2.302066 -1.641277,-1.956365 -0.105501,0.1055 -0.02001,0.298002 0.189979,0.427782 0.3252,0.200985 0.318124,0.260398 -0.04774,0.400792 -0.236243,0.09066 -0.487768,0.387516 -0.558943,0.659692 -0.154721,0.591654 0.359946,3.136796 1.146318,5.668789 0.355949,1.146097 0.592979,2.685214 0.631578,4.101041 0.07586,2.782666 0.236789,3.19245 1.253708,3.19245 0.429581,0 0.715781,-0.10562 0.635998,-0.234711 z m 4.025173,-3.11203 c 0.03191,-0.385499 0.236467,-1.058635 0.454582,-1.495858 0.476787,-0.955741 0.489099,-1.066648 0.09111,-0.820677 -0.196489,0.121436 -0.233328,0.07207 -0.103263,-0.138382 0.202387,-0.327469 -1.268325,-2.744415 -2.379489,-3.910419 -0.306068,-0.321174 -0.841382,-1.137878 -1.189587,-1.814898 -0.348204,-0.677021 -0.680011,-1.09021 -0.737348,-0.918199 -0.129316,0.387949 0.838086,3.175347 1.656274,4.772257 0.335513,0.654844 0.866787,2.053828 1.180608,3.108854 0.596683,2.005976 0.929222,2.400097 1.027112,1.217322 z"
       id="path469" /><path
       style="fill:#c83439"
       d="m 18.123958,43.518156 c -0.14552,-0.04574 -0.698041,-0.155388 -1.227824,-0.243673 -0.529782,-0.08828 -1.469482,-0.561121 -2.088222,-1.050747 C 13.726985,41.368367 13.648476,41.347902 12.803089,41.701128 11.65506,42.180805 9.6919303,42.168373 8.016474,41.670816 7.0021077,41.369582 6.3773942,40.944227 5.4456677,39.920406 3.9011408,38.223214 3.4478113,37.161273 3.2002427,34.660416 3.0244831,32.88495 3.0795037,32.461767 3.7228691,30.640703 c 0.3954866,-1.119436 1.40507,-3.18496 2.2435187,-4.590052 2.0062667,-3.362151 2.6600651,-5.041205 3.7561942,-9.646485 0.502226,-2.110052 1.169241,-4.368668 1.482257,-5.019146 0.845663,-1.7573749 2.973649,-3.7915754 4.405578,-4.2114141 1.463044,-0.4289615 1.846047,-0.7257406 1.872971,-1.4513153 0.02255,-0.6077563 0.106859,-0.4443053 0.357884,0.6938551 0.09012,0.4085991 0.338794,0.7276042 0.567193,0.7276042 0.327976,0 0.385797,-0.2689268 0.298661,-1.3890625 C 18.647695,4.990703 18.499643,4.1274999 18.378122,3.8364583 18.1943,3.3962076 18.221457,3.3594049 18.539746,3.6174342 c 0.210414,0.1705785 0.541429,0.8481582 0.735588,1.5057328 0.300335,1.0171744 0.477666,1.2220281 1.18832,1.3727546 1.213559,0.2573908 3.780325,1.8770686 4.51824,2.8510954 0.894604,1.180852 1.871848,3.450774 2.354785,5.469649 1.144125,4.78291 1.317123,5.443823 1.489005,5.688542 0.102209,0.145521 0.326051,0.740833 0.497426,1.322917 0.171376,0.582083 0.900428,2.070364 1.620117,3.307291 3.071268,5.27858 3.814141,7.8506 3.170732,10.977904 -0.422687,2.054484 -0.752252,2.673292 -2.144301,4.026245 -1.861207,1.808936 -4.723001,2.422849 -7.191554,1.542735 -0.992371,-0.35381 -1.049091,-0.340078 -2.188858,0.529925 -0.643548,0.491231 -1.613851,0.964423 -2.156229,1.051538 -0.542378,0.08712 -1.224267,0.198701 -1.515309,0.24797 -0.291041,0.04927 -0.648229,0.05216 -0.79375,0.0064 z m 2.657132,-1.304784 c 0.506189,-0.211499 1.544162,-0.969433 2.306606,-1.684297 0.762444,-0.714865 1.74345,-1.489553 2.180012,-1.72153 0.736473,-0.39134 0.749537,-0.42254 0.181044,-0.432369 -0.842106,-0.01456 -1.523032,0.374327 -3.242658,1.851927 -0.837281,0.719439 -1.946907,1.393952 -2.568516,1.561334 -0.601921,0.162081 -1.165987,0.410519 -1.25348,0.552086 -0.242947,0.393096 1.354696,0.308348 2.396992,-0.127151 z m -5.435257,-1.029511 c 0,-0.05013 -0.26789,-0.395373 -0.595312,-0.767216 -0.977884,-1.11055 -2.589332,-2.053455 -3.476505,-2.034205 -0.707139,0.01534 -0.642053,0.06647 0.462417,0.363241 0.871245,0.234102 1.637217,0.697208 2.377359,1.43735 1.051842,1.051843 1.232041,1.198225 1.232041,1.00083 z M 30.12013,40.41807 c 1.269568,-0.592862 2.420918,-1.997377 3.104373,-3.78698 0.332378,-0.870318 0.415483,-1.719066 0.329231,-3.362399 -0.123517,-2.353304 -0.0073,-2.07594 -3.739355,-8.927025 -1.115612,-2.047993 -2.15154,-5.043578 -2.848531,-8.237079 C 26.686411,14.824252 26.201469,13.091652 25.8882,12.254365 24.82161,9.4036495 21.315743,6.7125174 20.100869,7.8119633 19.50592,8.3503843 17.557884,8.32554 17.250126,7.7756062 16.67614,6.749951 13.766517,8.3947253 12.431809,10.499342 c -0.922482,1.454604 -1.701351,3.720124 -2.219925,6.457162 -0.6097306,3.21817 -1.6278617,5.875984 -3.499767,9.136081 -0.9618985,1.675235 -1.9753623,3.641866 -2.2521418,4.370291 -1.5893587,4.182852 -0.3862193,8.196323 2.9663332,9.89519 0.7412818,0.375636 1.7119473,0.64349 2.2883334,0.631462 0.5505412,-0.01149 0.8819202,-0.05656 0.7364002,-0.100171 C 10.305521,40.845752 9.6506771,40.655972 8.9958333,40.467623 7.535438,40.047578 6.5340494,39.171837 5.5321517,37.438541 4.6863519,35.975296 4.5135768,34.130525 5.0722412,32.527939 l 0.3097411,-0.888524 0.3608327,1.708938 c 0.1984579,0.939916 0.3957239,1.947063 0.4383689,2.238105 0.1236249,0.843711 0.4687035,1.464619 0.7257071,1.305782 0.1302724,-0.08051 0.2386822,-1.062095 0.2409105,-2.181293 0.00223,-1.119198 0.1201986,-2.2135 0.2621562,-2.431781 0.1743943,-0.268157 0.2052658,0.125058 0.095186,1.212403 -0.1090104,1.076782 -0.05259,1.815428 0.1705091,2.232293 0.616252,1.151477 0.8076767,1.240579 2.0530061,0.955607 1.4196381,-0.324859 3.1538431,0.07382 4.6773431,1.075291 1.92013,1.262189 5.003783,1.051973 6.775052,-0.461863 0.50141,-0.428536 0.987385,-0.779435 1.079945,-0.779777 0.09256,-3.41e-4 0.363128,-0.41121 0.601263,-0.913042 0.363257,-0.765507 0.393294,-1.266083 0.186551,-3.108854 -0.135531,-1.208038 -0.386489,-2.672683 -0.557684,-3.254766 -0.767814,-2.610661 -1.450703,-8.813394 -0.910877,-8.273568 0.08195,0.08195 0.379401,1.143592 0.661001,2.359202 0.2816,1.215609 0.773862,3.081598 1.093917,4.14664 0.448763,1.493345 0.507076,1.982695 0.254841,2.138585 -0.223857,0.138352 -0.27168,0.548572 -0.151538,1.299896 0.09655,0.603763 0.276238,1.035515 0.399317,0.959448 0.309212,-0.191103 0.552765,0.914355 0.584909,2.654827 l 0.027,1.461845 h 1.019932 c 0.560963,0 0.954657,-0.10562 0.874874,-0.234711 -0.07978,-0.129091 0.05333,-0.218388 0.295802,-0.198437 0.79742,0.06561 1.670111,-1.603088 1.670111,-3.19347 0,-0.887089 -0.100646,-1.369493 -0.264584,-1.268174 -0.146179,0.09034 -0.264583,-0.100551 -0.264583,-0.426572 0,-0.324552 -0.164743,-0.778063 -0.366095,-1.007803 -0.666774,-0.760777 -2.061728,-4.30095 -2.289704,-5.810904 -0.123395,-0.817284 -0.52882,-2.071696 -0.900944,-2.787583 -0.372125,-0.715886 -0.678398,-1.727917 -0.680608,-2.248958 -0.006,-1.419075 -0.957942,-6.35441 -1.458538,-7.56193 -0.241312,-0.582083 -0.735093,-1.3726942 -1.097292,-1.7569137 -0.803013,-0.851835 -0.457006,-1.1503652 0.745802,-0.6434676 2.23905,0.943599 3.519249,3.3311153 4.414918,8.2336323 0.622338,3.406421 1.1338,4.798636 3.203059,8.718833 0.844938,1.600729 1.53505,2.969947 1.533581,3.042708 -0.0015,0.07276 0.256017,0.700147 0.572192,1.394192 1.105704,2.427172 1.176832,5.425567 0.165326,6.96932 -0.541223,0.826011 -0.719305,0.805139 -0.395565,-0.04636 0.333376,-0.876844 0.3302,-1.702567 -0.0065,-1.702567 -0.14552,0 -0.264583,0.118032 -0.264583,0.262294 0,0.144262 -0.416719,0.808225 -0.926042,1.475474 -0.950446,1.245152 -1.175175,2.10384 -0.600717,2.295326 0.672394,0.224132 -1.216204,1.091204 -2.664801,1.223434 -1.279951,0.116837 -1.381905,0.16251 -0.703232,0.315038 1.129716,0.253897 2.725263,0.01501 4.058672,-0.607662 z m -6.265854,-9.726404 c 0,-0.363802 0.06005,-0.51263 0.133452,-0.330729 0.0734,0.181901 0.0734,0.479557 0,0.661458 -0.0734,0.181901 -0.133452,0.03307 -0.133452,-0.330729 z m 6.515401,1.944926 c 0.03191,-0.385499 0.236467,-1.058635 0.454582,-1.495858 0.476787,-0.955741 0.489099,-1.066648 0.09111,-0.820677 -0.1932,0.119404 -0.233477,0.07231 -0.109592,-0.128141 0.187547,-0.303457 -1.869483,-3.733583 -2.239011,-3.733583 -0.299036,0 -1.489154,-2.458658 -1.857044,-3.836458 -0.19428,-0.727605 -0.493511,-1.464847 -0.664959,-1.638316 -0.964752,-0.97613 0.763425,5.098466 2.0468,7.194566 0.267294,0.436562 0.786897,1.776015 1.154675,2.976562 0.69099,2.255614 1.023142,2.69375 1.123438,1.481905 z"
       id="path468" /><path
       style="fill:#9c334c"
       d="m 18.123958,43.518156 c -0.14552,-0.04574 -0.698041,-0.155388 -1.227824,-0.243673 -0.529782,-0.08828 -1.469482,-0.561121 -2.088222,-1.050747 C 13.726985,41.368367 13.648476,41.347902 12.803089,41.701128 11.65506,42.180805 9.6919303,42.168373 8.016474,41.670816 7.0021077,41.369582 6.3773942,40.944227 5.4456677,39.920406 3.9011408,38.223214 3.4478113,37.161273 3.2002427,34.660416 3.0244831,32.88495 3.0795037,32.461767 3.7228691,30.640703 c 0.3954866,-1.119436 1.40507,-3.18496 2.2435187,-4.590052 2.0062667,-3.362151 2.6600651,-5.041205 3.7561942,-9.646485 0.502226,-2.110052 1.169241,-4.368668 1.482257,-5.019146 0.845663,-1.7573749 2.973649,-3.7915754 4.405578,-4.2114141 1.463044,-0.4289615 1.846047,-0.7257406 1.872971,-1.4513153 0.02255,-0.6077563 0.106859,-0.4443053 0.357884,0.6938551 0.09012,0.4085991 0.338794,0.7276042 0.567193,0.7276042 0.327976,0 0.385797,-0.2689268 0.298661,-1.3890625 C 18.647695,4.990703 18.499643,4.1274999 18.378122,3.8364583 18.1943,3.3962076 18.221457,3.3594049 18.539746,3.6174342 c 0.210414,0.1705785 0.541429,0.8481582 0.735588,1.5057328 0.300335,1.0171744 0.477666,1.2220281 1.18832,1.3727546 1.213559,0.2573908 3.780325,1.8770686 4.51824,2.8510954 0.894604,1.180852 1.871848,3.450774 2.354785,5.469649 1.144125,4.78291 1.317123,5.443823 1.489005,5.688542 0.102209,0.145521 0.326051,0.740833 0.497426,1.322917 0.171376,0.582083 0.900428,2.070364 1.620117,3.307291 3.071268,5.27858 3.814141,7.8506 3.170732,10.977904 -0.422687,2.054484 -0.752252,2.673292 -2.144301,4.026245 -1.861207,1.808936 -4.723001,2.422849 -7.191554,1.542735 -0.992371,-0.35381 -1.049091,-0.340078 -2.188858,0.529925 -0.643548,0.491231 -1.613851,0.964423 -2.156229,1.051538 -0.542378,0.08712 -1.224267,0.198701 -1.515309,0.24797 -0.291041,0.04927 -0.648229,0.05216 -0.79375,0.0064 z m 2.657132,-1.304784 c 0.506189,-0.211499 1.544162,-0.969433 2.306606,-1.684297 0.762444,-0.714865 1.74345,-1.489553 2.180012,-1.72153 0.736473,-0.39134 0.749537,-0.42254 0.181044,-0.432369 -0.842106,-0.01456 -1.523032,0.374327 -3.242658,1.851927 -0.837281,0.719439 -1.946907,1.393952 -2.568516,1.561334 -0.601921,0.162081 -1.165987,0.410519 -1.25348,0.552086 -0.242947,0.393096 1.354696,0.308348 2.396992,-0.127151 z m -5.435257,-1.034811 c 0,-0.05304 -0.327422,-0.460121 -0.727604,-0.904622 -1.002054,-1.11303 -2.425348,-1.910658 -3.373437,-1.89051 -0.654209,0.0139 -0.567778,0.07759 0.491641,0.362252 0.871245,0.234102 1.637217,0.697208 2.377359,1.43735 1.05867,1.058671 1.232041,1.19876 1.232041,0.99553 z M 30.12013,40.41807 c 1.269568,-0.592862 2.420918,-1.997377 3.104373,-3.78698 0.332378,-0.870318 0.415483,-1.719066 0.329231,-3.362399 -0.123517,-2.353304 -0.0073,-2.07594 -3.739355,-8.927025 -1.115612,-2.047993 -2.15154,-5.043578 -2.848531,-8.237079 C 26.686411,14.824252 26.201469,13.091652 25.8882,12.254365 24.82161,9.4036495 21.315743,6.7125174 20.100869,7.8119633 19.50592,8.3503843 17.557884,8.32554 17.250126,7.7756062 16.67614,6.749951 13.766517,8.3947253 12.431809,10.499342 c -0.922482,1.454604 -1.701351,3.720124 -2.219925,6.457162 -0.6097306,3.21817 -1.6278617,5.875984 -3.499767,9.136081 -0.9618985,1.675235 -1.9753623,3.641866 -2.2521418,4.370291 -1.5893587,4.182852 -0.3862193,8.196323 2.9663332,9.89519 0.7635545,0.386923 1.6946291,0.639613 2.2883334,0.621046 C 10.78241,40.945719 10.680134,40.892337 8.5339209,40.362838 7.5192558,40.112506 5.9745708,38.494701 5.2711564,36.945624 4.7663503,35.833927 4.6268761,33.646514 5.0000383,32.693603 c 0.2835541,-0.724086 0.4666583,-0.274967 0.6912813,1.69558 0.2031218,1.781922 0.6478827,2.754778 1.3895088,3.039367 0.2389746,0.0917 1.2360592,-0.09605 2.2157435,-0.417228 1.7389391,-0.570091 1.8101821,-0.572908 2.9996601,-0.118643 0.670128,0.255925 1.560258,0.752959 1.978066,1.104521 1.391788,1.171112 4.246535,1.940507 4.246535,1.144501 0,-0.154668 0.20836,-0.255119 0.463021,-0.223226 1.185916,0.148523 2.949267,-1.341 3.850133,-3.252251 0.396455,-0.841107 0.425828,-1.287104 0.209101,-3.175 -0.13868,-1.208038 -0.336228,-2.55362 -0.438995,-2.990183 -0.102768,-0.436562 -0.08897,-0.70223 0.03065,-0.590372 0.292741,0.273734 0.90423,2.060405 0.909191,2.656508 0.0022,0.26325 0.119556,0.407208 0.26081,0.319908 0.339937,-0.210092 0.584693,0.833325 0.617956,2.634403 l 0.027,1.461845 h 1.019932 c 0.560963,0 0.954657,-0.10562 0.874874,-0.234711 -0.07978,-0.129091 0.05333,-0.218388 0.295802,-0.198437 0.79742,0.06561 1.670111,-1.603088 1.670111,-3.19347 0,-0.887089 -0.100646,-1.369493 -0.264584,-1.268174 -0.146179,0.09034 -0.264583,-0.100551 -0.264583,-0.426572 0,-0.324552 -0.164743,-0.778063 -0.366095,-1.007803 -0.673745,-0.768731 -1.982969,-4.126061 -2.246064,-5.759731 -0.143138,-0.88881 -0.502594,-2.091049 -0.798791,-2.671642 -0.360332,-0.70631 -0.532744,-1.540725 -0.521028,-2.5216 0.0096,-0.806287 -0.04838,-1.572592 -0.128917,-1.702901 -0.08053,-0.130308 -0.208713,-1.334437 -0.28484,-2.675843 -0.106791,-1.881704 -0.06442,-2.394496 0.185431,-2.244479 0.207117,0.124356 0.192959,0.03308 -0.03928,-0.253223 -0.19972,-0.246215 -0.277256,-0.447664 -0.172303,-0.447664 0.104952,0 -0.05681,-0.4197 -0.359465,-0.932667 -0.477904,-0.8099878 -0.489653,-0.9002172 -0.08932,-0.6859653 1.373165,0.7348953 2.426933,3.1517293 3.186013,7.3071743 0.624551,3.418984 1.134631,4.808463 3.205257,8.73125 0.844938,1.600729 1.53505,2.969947 1.533581,3.042708 -0.0015,0.07276 0.256017,0.700147 0.572192,1.394192 1.105704,2.427172 1.176832,5.425567 0.165326,6.96932 -0.541223,0.826011 -0.719305,0.805139 -0.395565,-0.04636 0.333376,-0.876844 0.3302,-1.702567 -0.0065,-1.702567 -0.14552,0 -0.264583,0.118032 -0.264583,0.262294 0,0.144262 -0.416719,0.808225 -0.926042,1.475474 -0.950446,1.245152 -1.175175,2.10384 -0.600717,2.295326 0.672394,0.224132 -1.216204,1.091204 -2.664801,1.223434 -1.279951,0.116837 -1.381905,0.16251 -0.703232,0.315038 1.129716,0.253897 2.725263,0.01501 4.058672,-0.607662 z m -6.265854,-9.726404 c 0,-0.363802 0.06005,-0.51263 0.133452,-0.330729 0.0734,0.181901 0.0734,0.479557 0,0.661458 -0.0734,0.181901 -0.133452,0.03307 -0.133452,-0.330729 z m -0.550055,-2.006423 c 0.0127,-0.308225 0.07539,-0.37092 0.159853,-0.159853 0.07643,0.190996 0.06703,0.419199 -0.02089,0.507118 -0.08792,0.08792 -0.150453,-0.06835 -0.138965,-0.347265 z m -0.747667,-2.127036 c -0.208653,-0.696318 -0.280193,-0.790128 -0.222677,-0.291997 0.04661,0.403656 0.0015,0.785371 -0.100263,0.848257 -0.101752,0.06289 -0.186881,-0.02925 -0.189176,-0.204752 -0.0023,-0.1755 -0.08677,-0.6862 -0.187726,-1.134889 -0.289358,-1.286044 0.564421,-1.08245 0.914624,0.218103 0.369946,1.373874 0.1785,1.877737 -0.214782,0.565278 z m 7.813123,6.078385 c 0.03191,-0.385499 0.236467,-1.058635 0.454582,-1.495858 0.476787,-0.955741 0.489099,-1.066648 0.09111,-0.820677 -0.1932,0.119404 -0.233477,0.07231 -0.109592,-0.128141 0.187547,-0.303457 -1.869483,-3.733583 -2.239011,-3.733583 -0.299036,0 -1.489154,-2.458658 -1.857044,-3.836458 -0.19428,-0.727605 -0.507289,-1.478625 -0.695577,-1.668934 -0.988576,-0.999192 0.755225,5.065683 2.077418,7.225184 0.267294,0.436562 0.786897,1.776015 1.154675,2.976562 0.69099,2.255614 1.023142,2.69375 1.123438,1.481905 z"
       id="path467" /><path
       style="fill:#a82b36"
       d="M 17.248553,43.367241 C 16.621559,43.247418 15.549997,42.744613 14.867303,42.249897 13.70703,41.409101 13.574252,41.373068 12.832292,41.697647 11.758481,42.167398 9.6453995,42.154555 8.0080919,41.668327 6.8884724,41.335835 6.4426838,41.000222 5.3803822,39.690048 3.0200933,36.77902 2.6042805,34.059061 3.9404475,30.270995 4.3557013,29.09374 5.246519,27.294068 5.9200424,26.271724 8.0255215,23.075808 8.8009515,20.982403 10.212178,14.684375 c 0.26768,-1.194602 0.854776,-2.769206 1.347723,-3.614618 0.987348,-1.6933179 2.91328,-3.5196898 3.990896,-3.7845886 1.134835,-0.2789645 1.909853,-0.8951718 1.932591,-1.5365804 0.02245,-0.6333288 0.104879,-0.479579 0.357884,0.6675577 0.09012,0.4085991 0.338794,0.7276042 0.567193,0.7276042 0.327976,0 0.385797,-0.2689268 0.298661,-1.3890625 C 18.647695,4.990703 18.499643,4.1274999 18.378122,3.8364583 18.1943,3.3962076 18.221457,3.3594049 18.539746,3.6174342 c 0.210414,0.1705785 0.540051,0.843493 0.732527,1.4953656 0.322291,1.0915319 0.44237,1.2084935 1.519049,1.4796043 0.643002,0.1619098 1.169095,0.3846544 1.169095,0.494988 0,0.1103336 0.424549,0.4292412 0.943442,0.7086836 2.324309,1.2517232 3.639484,3.7655213 5.02419,9.6031363 0.388702,1.638681 0.812343,3.044693 0.941424,3.124469 0.129082,0.07978 0.234694,0.377794 0.234694,0.66226 0,0.581213 1.006187,2.715078 2.472829,5.244238 1.491458,2.571953 2.476266,5.029312 2.662136,6.642737 0.168568,1.463233 -0.292241,4.417593 -0.852248,5.463975 -0.516569,0.965218 -2.583245,2.651579 -3.835817,3.129941 -1.390875,0.53118 -4.167099,0.462276 -5.11042,-0.126838 -0.467282,-0.291822 -0.689126,-0.214953 -1.777699,0.615973 -0.684084,0.522173 -1.687553,1.020681 -2.229931,1.107796 -0.542378,0.08712 -1.224267,0.195054 -1.515309,0.239864 -0.291041,0.04481 -1.042161,-0.01656 -1.669155,-0.136386 z m 3.829069,-1.10943 c 0.314828,-0.176744 1.080315,-0.797603 1.701082,-1.379687 2.157187,-2.022758 3.442871,-2.470478 4.620831,-1.609132 0.687124,0.502437 0.484946,0.637687 -1.17933,0.788927 -1.6604,0.150888 -1.927562,0.333406 -1.23224,0.841838 0.590704,0.431933 2.758828,0.492308 4.116202,0.114622 2.104374,-0.585538 4.019691,-2.984416 4.512863,-5.652228 0.504709,-2.730223 -0.02262,-4.375355 -3.320468,-10.359026 C 28.750813,22.198492 27.828699,19.651489 26.980582,15.84394 26.091787,11.853774 25.064821,9.8335302 23.305492,8.614314 21.874502,7.6226373 20.65019,7.3148344 20.10374,7.8093649 19.501603,8.354292 17.738611,8.3189875 17.325281,7.7537254 c -0.720243,-0.9849905 -3.80364,0.7717023 -5.127587,2.9213216 -0.698726,1.134481 -1.488745,3.574481 -1.988669,6.142069 -0.6555268,3.366756 -1.3840452,5.298099 -3.337336,8.847467 -2.9274978,5.319621 -3.0326376,5.60863 -3.0319963,8.334375 4.551e-4,1.933931 0.1076781,2.580058 0.5707903,3.439583 1.384449,2.569504 4.5554562,4.299764 6.832637,3.728228 0.998579,-0.250627 0.550841,-0.676965 -0.527219,-0.50202 -0.612364,0.09937 -1.1339756,0.0059 -1.5733429,-0.282004 -0.3615005,-0.236864 -0.8309213,-0.430662 -1.0431573,-0.430662 -0.6810436,0 -1.9529686,-1.295459 -2.6548705,-2.703993 -0.6905898,-1.385833 -0.8890425,-3.419279 -0.444492,-4.554487 0.2835541,-0.724086 0.4666583,-0.274967 0.6912813,1.69558 0.2031218,1.781922 0.6478827,2.754778 1.3895088,3.039367 0.2389746,0.0917 1.2360592,-0.09605 2.2157435,-0.417228 1.7389391,-0.570091 1.8101821,-0.572908 2.9996601,-0.118643 0.670128,0.255925 1.560258,0.752959 1.978066,1.104521 1.391788,1.171112 4.246535,1.940507 4.246535,1.144501 0,-0.154668 0.20836,-0.255119 0.463021,-0.223226 1.185916,0.148523 2.949267,-1.341 3.850133,-3.252251 0.396455,-0.841107 0.425828,-1.287104 0.209101,-3.175 -0.13868,-1.208038 -0.336228,-2.55362 -0.438995,-2.990183 -0.102768,-0.436562 -0.08897,-0.70223 0.03065,-0.590372 0.292741,0.273734 0.90423,2.060405 0.909191,2.656508 0.0022,0.26325 0.119556,0.407208 0.26081,0.319908 0.383915,-0.237273 0.597055,0.949338 0.495145,2.756619 l -0.09051,1.605176 0.926042,0.03926 c 0.868625,0.03682 0.85222,0.05073 -0.264584,0.224362 -0.654843,0.101809 -1.02791,0.202989 -0.829037,0.224845 0.222262,0.02443 0.309546,0.238748 0.226525,0.556219 -0.07428,0.284065 0.0011,0.572657 0.167579,0.641316 0.484201,0.199724 -0.387022,0.685619 -1.237611,0.690236 -0.848187,0.0046 -1.719033,0.66587 -1.169364,0.887943 0.180602,0.07297 0.06048,0.142065 -0.266946,0.153553 -0.411961,0.01445 -0.595312,0.183868 -0.595312,0.550055 0,0.457996 -0.186824,0.533377 -1.389063,0.560471 -1.187332,0.02676 -1.273788,0.06064 -0.595312,0.233279 0.633694,0.161248 0.462811,0.208287 -0.847447,0.233279 -1.688352,0.0322 -2.742731,-0.28332 -3.628307,-1.085774 -1.870953,-1.69534 -3.446996,-2.307613 -4.255496,-1.653208 -0.5223579,0.4228 -0.5214243,0.426653 0.07255,0.299478 1.17849,-0.252327 2.499696,0.368165 3.876782,1.820692 0.738284,0.77873 1.639992,1.533687 2.003794,1.677682 0.931794,0.36881 3.988939,0.339534 4.673455,-0.04475 z m 4.320223,-4.421063 c 0.257403,-0.159084 0.217815,-0.244518 -0.157879,-0.340719 -0.368389,-0.09433 -0.31589,-0.136539 0.197872,-0.159088 0.384614,-0.01688 0.756378,0.118137 0.826144,0.300038 0.07883,0.205527 -0.126132,0.346129 -0.541418,0.37141 -0.433609,0.0264 -0.547631,-0.03387 -0.324719,-0.171641 z m 0.200592,-0.98648 c 0.472943,-0.05869 1.246849,-0.05869 1.719792,0 0.472943,0.05869 0.08599,0.106712 -0.859896,0.106712 -0.945885,0 -1.332838,-0.04802 -0.859896,-0.106712 z m -1.744161,-6.158602 c 0,-0.363802 0.06005,-0.51263 0.133452,-0.330729 0.0734,0.181901 0.0734,0.479557 0,0.661458 -0.0734,0.181901 -0.133452,0.03307 -0.133452,-0.330729 z m 4.22793,-1.238977 c -0.223267,-0.536548 -0.484042,-0.790825 -0.71869,-0.700782 -0.510938,0.196065 -1.862346,-2.795452 -2.194468,-4.857744 -0.143115,-0.888661 -0.502551,-2.090777 -0.798748,-2.67137 -0.360332,-0.70631 -0.532744,-1.540725 -0.521028,-2.5216 0.0096,-0.806287 -0.04838,-1.572592 -0.128917,-1.702901 -0.08053,-0.130308 -0.208713,-1.334437 -0.28484,-2.675843 -0.106791,-1.881704 -0.06442,-2.394496 0.185431,-2.244479 0.207117,0.124356 0.192959,0.03308 -0.03928,-0.253223 -0.19972,-0.246215 -0.277256,-0.447664 -0.172303,-0.447664 0.104952,0 -0.05681,-0.4197 -0.359465,-0.932667 -0.519357,-0.8802459 -0.52198,-0.9175179 -0.04665,-0.6631309 1.188713,0.6361799 1.790506,1.9214759 2.638148,5.6344909 0.387176,1.69599 0.384778,3.649081 -0.0038,3.105057 -0.219255,-0.306955 -0.242366,-0.247009 -0.102004,0.264583 0.09981,0.363802 0.21726,1.435365 0.260991,2.38125 0.07904,1.709541 0.673086,3.615006 2.098647,6.731603 0.387731,0.847665 0.667265,1.733656 0.621186,1.968866 -0.05481,0.279764 -0.20496,0.136439 -0.434194,-0.414446 z m -4.777985,-0.767446 c 0.0127,-0.308225 0.07539,-0.37092 0.159853,-0.159853 0.07643,0.190996 0.06703,0.419199 -0.02089,0.507118 -0.08792,0.08792 -0.150453,-0.06835 -0.138965,-0.347265 z m -0.747667,-2.127036 c -0.208653,-0.696318 -0.280193,-0.790128 -0.222677,-0.291997 0.04661,0.403656 0.0015,0.785371 -0.100263,0.848257 -0.101752,0.06289 -0.186881,-0.02925 -0.189176,-0.204752 -0.0023,-0.1755 -0.08677,-0.6862 -0.187726,-1.134889 -0.289358,-1.286044 0.564421,-1.08245 0.914624,0.218103 0.369946,1.373874 0.1785,1.877737 -0.214782,0.565278 z m 4.716417,-3.429214 c 0.0127,-0.308225 0.07539,-0.37092 0.159853,-0.159853 0.07643,0.190996 0.06703,0.419199 -0.02089,0.507118 -0.08792,0.08792 -0.150453,-0.06835 -0.138965,-0.347265 z M 12.964583,40.613541 c 0,-0.04162 -0.178593,-0.14421 -0.396875,-0.227972 -0.239328,-0.09184 -0.396875,-0.0013 -0.396875,0.227972 0,0.229313 0.157547,0.319811 0.396875,0.227972 0.218282,-0.08376 0.396875,-0.18635 0.396875,-0.227972 z"
       id="path466" /><path
       style="fill:#611b26"
       d="M 17.248553,43.367241 C 16.621559,43.247418 15.549997,42.744613 14.867303,42.249897 13.70703,41.409101 13.574252,41.373068 12.832292,41.697647 11.758481,42.167398 9.6453995,42.154555 8.0080919,41.668327 6.8884724,41.335835 6.4426838,41.000222 5.3803822,39.690048 3.0200933,36.77902 2.6042805,34.059061 3.9404475,30.270995 4.3557013,29.09374 5.246519,27.294068 5.9200424,26.271724 8.0255215,23.075808 8.8009515,20.982403 10.212178,14.684375 c 0.26768,-1.194602 0.854776,-2.769206 1.347723,-3.614618 0.987348,-1.6933179 2.91328,-3.5196898 3.990896,-3.7845886 1.134835,-0.2789645 1.909853,-0.8951718 1.932591,-1.5365804 0.02245,-0.6333288 0.104879,-0.479579 0.357884,0.6675577 0.09012,0.4085991 0.338794,0.7276042 0.567193,0.7276042 0.327976,0 0.385797,-0.2689268 0.298661,-1.3890625 C 18.647695,4.990703 18.499643,4.1274999 18.378122,3.8364583 18.1943,3.3962076 18.221457,3.3594049 18.539746,3.6174342 c 0.210414,0.1705785 0.540051,0.843493 0.732527,1.4953656 0.322291,1.0915319 0.44237,1.2084935 1.519049,1.4796043 0.643002,0.1619098 1.169095,0.3846544 1.169095,0.494988 0,0.1103336 0.424549,0.4292412 0.943442,0.7086836 2.324309,1.2517232 3.639484,3.7655213 5.02419,9.6031363 0.388702,1.638681 0.812343,3.044693 0.941424,3.124469 0.129082,0.07978 0.234694,0.377794 0.234694,0.66226 0,0.581213 1.006187,2.715078 2.472829,5.244238 1.491458,2.571953 2.476266,5.029312 2.662136,6.642737 0.168568,1.463233 -0.292241,4.417593 -0.852248,5.463975 -0.516569,0.965218 -2.583245,2.651579 -3.835817,3.129941 -1.390875,0.53118 -4.167099,0.462276 -5.11042,-0.126838 -0.467282,-0.291822 -0.689126,-0.214953 -1.777699,0.615973 -0.684084,0.522173 -1.687553,1.020681 -2.229931,1.107796 -0.542378,0.08712 -1.224267,0.195054 -1.515309,0.239864 -0.291041,0.04481 -1.042161,-0.01656 -1.669155,-0.136386 z m 3.829069,-1.10943 c 0.314828,-0.176744 1.080315,-0.797603 1.701082,-1.379687 2.157187,-2.022758 3.442871,-2.470478 4.620831,-1.609132 0.687124,0.502437 0.484946,0.637687 -1.17933,0.788927 -1.6604,0.150888 -1.927562,0.333406 -1.23224,0.841838 0.590704,0.431933 2.758828,0.492308 4.116202,0.114622 2.104374,-0.585538 4.019691,-2.984416 4.512863,-5.652228 0.50489,-2.7312 -0.02544,-4.384775 -3.322348,-10.359026 C 28.810967,22.314516 27.767215,19.343111 26.716531,14.816666 25.856547,11.111776 24.915601,9.515951 22.799969,8.1742567 21.460554,7.324825 20.537646,7.2058066 19.938244,7.8052082 19.414441,8.3290114 18.022033,8.3115786 17.427769,7.7737774 16.579215,7.0058465 15.200196,7.5116372 13.495966,9.2158668 c -1.71615,1.7161502 -2.412939,3.2591862 -3.186281,7.0560082 -0.7951038,3.903659 -1.738213,6.432769 -3.6670593,9.833851 -2.3305861,4.109459 -2.938459,5.734618 -2.938459,7.856024 0,2.194054 0.6067918,3.881794 1.8598325,5.172967 1.5740128,1.621912 2.4613638,1.988773 4.7547508,1.965776 2.254375,-0.02261 2.910417,-0.102413 2.910417,-0.354048 0,-0.329218 -1.187816,-0.779952 -2.248959,-0.8534 -1.2092483,-0.0837 -1.3824692,-0.475685 -0.367885,-0.832495 1.094829,-0.385031 2.044304,0.01894 3.654632,1.554934 0.824615,0.78655 1.791658,1.54682 2.148985,1.68949 0.918908,0.366893 3.979294,0.335931 4.661682,-0.04716 z m 2.602586,-3.893228 c 0.08994,-0.145521 0.364854,-0.26276 0.610928,-0.260532 0.38557,0.0035 0.392554,0.0395 0.05053,0.260532 -0.518153,0.334856 -0.868411,0.334856 -0.661459,0 z"
       id="path465" /></g></svg>
